<mxfile host="app.diagrams.net" agent="Mozilla/5.0 (Windows NT 10.0; Win64; x64) AppleWebKit/537.36 (KHTML, like Gecko) Chrome/136.0.0.0 Safari/537.36" version="27.1.3" pages="6">
  <diagram name="account structure" id="85j2dBTdEjeJWVgTCAml">
    <mxGraphModel dx="5101" dy="2826" grid="1" gridSize="10" guides="1" tooltips="1" connect="1" arrows="1" fold="1" page="1" pageScale="1" pageWidth="827" pageHeight="1169" math="0" shadow="0">
      <root>
        <mxCell id="0" />
        <mxCell id="1" value="Org structure" style="locked=1;" parent="0" />
        <mxCell id="MmJuiAPrky_wNMp2KEd6-6" value="" style="group;fontSize=24;" parent="1" vertex="1" connectable="0">
          <mxGeometry x="-660" y="-127.92" width="1204" height="1010.27" as="geometry" />
        </mxCell>
        <mxCell id="m-992s-pbf9lndgV1Aht-15" style="edgeStyle=orthogonalEdgeStyle;rounded=0;orthogonalLoop=1;jettySize=auto;html=1;fontSize=24;" parent="MmJuiAPrky_wNMp2KEd6-6" source="m-992s-pbf9lndgV1Aht-1" target="m-992s-pbf9lndgV1Aht-8" edge="1">
          <mxGeometry relative="1" as="geometry">
            <Array as="points">
              <mxPoint x="615.5789473684212" y="199.15716845878137" />
              <mxPoint x="257.09473684210525" y="199.15716845878137" />
            </Array>
          </mxGeometry>
        </mxCell>
        <mxCell id="m-992s-pbf9lndgV1Aht-16" style="edgeStyle=orthogonalEdgeStyle;rounded=0;orthogonalLoop=1;jettySize=auto;html=1;fontSize=24;" parent="MmJuiAPrky_wNMp2KEd6-6" source="m-992s-pbf9lndgV1Aht-1" target="m-992s-pbf9lndgV1Aht-7" edge="1">
          <mxGeometry relative="1" as="geometry">
            <Array as="points">
              <mxPoint x="615.5789473684212" y="199.15716845878137" />
              <mxPoint x="926.9894736842105" y="199.15716845878137" />
            </Array>
          </mxGeometry>
        </mxCell>
        <mxCell id="m-992s-pbf9lndgV1Aht-1" value="&lt;span style=&quot;background-color: light-dark(#ffffff, var(--ge-dark-color, #121212));&quot;&gt;AWS Organizations&lt;/span&gt;" style="sketch=0;points=[[0,0,0],[0.25,0,0],[0.5,0,0],[0.75,0,0],[1,0,0],[0,1,0],[0.25,1,0],[0.5,1,0],[0.75,1,0],[1,1,0],[0,0.25,0],[0,0.5,0],[0,0.75,0],[1,0.25,0],[1,0.5,0],[1,0.75,0]];points=[[0,0,0],[0.25,0,0],[0.5,0,0],[0.75,0,0],[1,0,0],[0,1,0],[0.25,1,0],[0.5,1,0],[0.75,1,0],[1,1,0],[0,0.25,0],[0,0.5,0],[0,0.75,0],[1,0.25,0],[1,0.5,0],[1,0.75,0]];outlineConnect=0;fontColor=#232F3E;fillColor=#E7157B;strokeColor=#ffffff;dashed=0;verticalLabelPosition=bottom;verticalAlign=top;align=center;html=1;fontSize=24;fontStyle=0;aspect=fixed;shape=mxgraph.aws4.resourceIcon;resIcon=mxgraph.aws4.organizations;" parent="MmJuiAPrky_wNMp2KEd6-6" vertex="1">
          <mxGeometry x="544.9684210526317" width="141.22003473855239" height="141.22003473855239" as="geometry" />
        </mxCell>
        <mxCell id="m-992s-pbf9lndgV1Aht-2" value="team 1&lt;br&gt;dev account" style="sketch=0;outlineConnect=0;fontColor=#232F3E;gradientColor=none;fillColor=#E7157B;strokeColor=none;dashed=0;verticalLabelPosition=bottom;verticalAlign=top;align=center;html=1;fontSize=24;fontStyle=0;aspect=fixed;pointerEvents=1;shape=mxgraph.aws4.organizations_account;" parent="MmJuiAPrky_wNMp2KEd6-6" vertex="1">
          <mxGeometry x="1.8105263157894735" y="579.3663082437275" width="133.97798167503692" height="141.22003473855239" as="geometry" />
        </mxCell>
        <mxCell id="m-992s-pbf9lndgV1Aht-20" style="edgeStyle=orthogonalEdgeStyle;rounded=0;orthogonalLoop=1;jettySize=auto;html=1;fontSize=24;" parent="MmJuiAPrky_wNMp2KEd6-6" source="m-992s-pbf9lndgV1Aht-7" target="m-992s-pbf9lndgV1Aht-10" edge="1">
          <mxGeometry relative="1" as="geometry">
            <Array as="points">
              <mxPoint x="926.9894736842105" y="506.94551971326155" />
              <mxPoint x="753.1789473684211" y="506.94551971326155" />
            </Array>
          </mxGeometry>
        </mxCell>
        <mxCell id="m-992s-pbf9lndgV1Aht-21" style="edgeStyle=orthogonalEdgeStyle;rounded=0;orthogonalLoop=1;jettySize=auto;html=1;fontSize=24;" parent="MmJuiAPrky_wNMp2KEd6-6" source="m-992s-pbf9lndgV1Aht-7" target="m-992s-pbf9lndgV1Aht-11" edge="1">
          <mxGeometry relative="1" as="geometry">
            <Array as="points">
              <mxPoint x="926.9894736842105" y="579.3663082437275" />
              <mxPoint x="926.9894736842105" y="579.3663082437275" />
            </Array>
          </mxGeometry>
        </mxCell>
        <mxCell id="m-992s-pbf9lndgV1Aht-24" style="edgeStyle=orthogonalEdgeStyle;rounded=0;orthogonalLoop=1;jettySize=auto;html=1;fontSize=24;" parent="MmJuiAPrky_wNMp2KEd6-6" source="m-992s-pbf9lndgV1Aht-7" target="m-992s-pbf9lndgV1Aht-23" edge="1">
          <mxGeometry relative="1" as="geometry">
            <Array as="points">
              <mxPoint x="926.9894736842105" y="506.94551971326155" />
              <mxPoint x="1106.2315789473685" y="506.94551971326155" />
            </Array>
          </mxGeometry>
        </mxCell>
        <mxCell id="m-992s-pbf9lndgV1Aht-7" value="&lt;span style=&quot;background-color: light-dark(#ffffff, var(--ge-dark-color, #121212));&quot;&gt;governance&lt;br&gt;org unit &lt;br&gt;&lt;i&gt;(accounts owned by Central Cloud Team)&lt;/i&gt;&lt;/span&gt;" style="sketch=0;outlineConnect=0;fontColor=#232F3E;gradientColor=none;fillColor=#E7157B;strokeColor=none;dashed=0;verticalLabelPosition=bottom;verticalAlign=top;align=center;html=1;fontSize=24;fontStyle=0;aspect=fixed;pointerEvents=1;shape=mxgraph.aws4.organizations_organizational_unit2;" parent="MmJuiAPrky_wNMp2KEd6-6" vertex="1">
          <mxGeometry x="856.3789473684211" y="271.5779569892473" width="141.22003473855239" height="141.22003473855239" as="geometry" />
        </mxCell>
        <mxCell id="m-992s-pbf9lndgV1Aht-17" style="edgeStyle=orthogonalEdgeStyle;rounded=0;orthogonalLoop=1;jettySize=auto;html=1;fontSize=24;" parent="MmJuiAPrky_wNMp2KEd6-6" source="m-992s-pbf9lndgV1Aht-8" target="m-992s-pbf9lndgV1Aht-2" edge="1">
          <mxGeometry relative="1" as="geometry">
            <Array as="points">
              <mxPoint x="257.09473684210525" y="506.94551971326155" />
              <mxPoint x="68.8" y="506.94551971326155" />
            </Array>
          </mxGeometry>
        </mxCell>
        <mxCell id="m-992s-pbf9lndgV1Aht-18" style="edgeStyle=orthogonalEdgeStyle;rounded=0;orthogonalLoop=1;jettySize=auto;html=1;fontSize=24;" parent="MmJuiAPrky_wNMp2KEd6-6" source="m-992s-pbf9lndgV1Aht-8" target="m-992s-pbf9lndgV1Aht-13" edge="1">
          <mxGeometry relative="1" as="geometry" />
        </mxCell>
        <mxCell id="m-992s-pbf9lndgV1Aht-19" style="edgeStyle=orthogonalEdgeStyle;rounded=0;orthogonalLoop=1;jettySize=auto;html=1;fontSize=24;" parent="MmJuiAPrky_wNMp2KEd6-6" source="m-992s-pbf9lndgV1Aht-8" target="m-992s-pbf9lndgV1Aht-14" edge="1">
          <mxGeometry relative="1" as="geometry">
            <Array as="points">
              <mxPoint x="257.09473684210525" y="506.94551971326155" />
              <mxPoint x="449.0105263157895" y="506.94551971326155" />
            </Array>
          </mxGeometry>
        </mxCell>
        <mxCell id="MmJuiAPrky_wNMp2KEd6-5" value="Text" style="edgeLabel;html=1;align=center;verticalAlign=middle;resizable=0;points=[];fontSize=24;" parent="m-992s-pbf9lndgV1Aht-19" vertex="1" connectable="0">
          <mxGeometry x="-0.6376" y="-6" relative="1" as="geometry">
            <mxPoint as="offset" />
          </mxGeometry>
        </mxCell>
        <mxCell id="m-992s-pbf9lndgV1Aht-8" value="&lt;span style=&quot;background-color: light-dark(#ffffff, var(--ge-dark-color, #121212));&quot;&gt;workloads &lt;br&gt;org. unit&lt;br&gt;&lt;i&gt;(accounts owned by development teams)&lt;/i&gt;&lt;/span&gt;" style="sketch=0;outlineConnect=0;fontColor=#232F3E;gradientColor=none;fillColor=#E7157B;strokeColor=none;dashed=0;verticalLabelPosition=bottom;verticalAlign=top;align=center;html=1;fontSize=24;fontStyle=0;aspect=fixed;pointerEvents=1;shape=mxgraph.aws4.organizations_organizational_unit2;" parent="MmJuiAPrky_wNMp2KEd6-6" vertex="1">
          <mxGeometry x="186.4842105263158" y="271.5779569892473" width="141.22003473855239" height="141.22003473855239" as="geometry" />
        </mxCell>
        <mxCell id="m-992s-pbf9lndgV1Aht-10" value="central networking &lt;br&gt;AWS account" style="sketch=0;outlineConnect=0;fontColor=#232F3E;gradientColor=none;fillColor=#E7157B;strokeColor=none;dashed=0;verticalLabelPosition=bottom;verticalAlign=top;align=center;html=1;fontSize=24;fontStyle=0;aspect=fixed;pointerEvents=1;shape=mxgraph.aws4.organizations_account;" parent="MmJuiAPrky_wNMp2KEd6-6" vertex="1">
          <mxGeometry x="653.6" y="561.2611111111111" width="133.97798167503692" height="141.22003473855239" as="geometry" />
        </mxCell>
        <mxCell id="m-992s-pbf9lndgV1Aht-11" value="central security &lt;br&gt;AWS account" style="sketch=0;outlineConnect=0;fontColor=#232F3E;gradientColor=none;fillColor=#E7157B;strokeColor=none;dashed=0;verticalLabelPosition=bottom;verticalAlign=top;align=center;html=1;fontSize=24;fontStyle=0;aspect=fixed;pointerEvents=1;shape=mxgraph.aws4.organizations_account;" parent="MmJuiAPrky_wNMp2KEd6-6" vertex="1">
          <mxGeometry x="863.621052631579" y="579.3663082437275" width="133.97798167503692" height="141.22003473855239" as="geometry" />
        </mxCell>
        <mxCell id="m-992s-pbf9lndgV1Aht-13" value="team 1&lt;br&gt;staging account" style="sketch=0;outlineConnect=0;fontColor=#232F3E;gradientColor=none;fillColor=#E7157B;strokeColor=none;dashed=0;verticalLabelPosition=bottom;verticalAlign=top;align=center;html=1;fontSize=24;fontStyle=0;aspect=fixed;pointerEvents=1;shape=mxgraph.aws4.organizations_account;" parent="MmJuiAPrky_wNMp2KEd6-6" vertex="1">
          <mxGeometry x="190.1052631578947" y="579.3663082437275" width="133.97798167503692" height="141.22003473855239" as="geometry" />
        </mxCell>
        <mxCell id="m-992s-pbf9lndgV1Aht-14" value="team 1&lt;br&gt;prod account" style="sketch=0;outlineConnect=0;fontColor=#232F3E;gradientColor=none;fillColor=#E7157B;strokeColor=none;dashed=0;verticalLabelPosition=bottom;verticalAlign=top;align=center;html=1;fontSize=24;fontStyle=0;aspect=fixed;pointerEvents=1;shape=mxgraph.aws4.organizations_account;" parent="MmJuiAPrky_wNMp2KEd6-6" vertex="1">
          <mxGeometry x="382.021052631579" y="579.3663082437275" width="133.97798167503692" height="141.22003473855239" as="geometry" />
        </mxCell>
        <mxCell id="m-992s-pbf9lndgV1Aht-23" value="org management&lt;br&gt;&amp;nbsp;account" style="sketch=0;outlineConnect=0;fontColor=#232F3E;gradientColor=none;fillColor=#E7157B;strokeColor=none;dashed=0;verticalLabelPosition=bottom;verticalAlign=top;align=center;html=1;fontSize=24;fontStyle=0;aspect=fixed;pointerEvents=1;shape=mxgraph.aws4.organizations_management_account;" parent="MmJuiAPrky_wNMp2KEd6-6" vertex="1">
          <mxGeometry x="1070.0210526315789" y="579.3663082437275" width="133.97798167503692" height="141.22003473855239" as="geometry" />
        </mxCell>
        <mxCell id="MmJuiAPrky_wNMp2KEd6-1" value="team 2&lt;br&gt;dev account" style="sketch=0;outlineConnect=0;fontColor=#232F3E;gradientColor=none;fillColor=#E7157B;strokeColor=none;dashed=0;verticalLabelPosition=bottom;verticalAlign=top;align=center;html=1;fontSize=24;fontStyle=0;aspect=fixed;pointerEvents=1;shape=mxgraph.aws4.organizations_account;" parent="MmJuiAPrky_wNMp2KEd6-6" vertex="1">
          <mxGeometry y="869.0494623655914" width="133.97798167503692" height="141.22003473855239" as="geometry" />
        </mxCell>
        <mxCell id="MmJuiAPrky_wNMp2KEd6-2" value="team 2&lt;br&gt;staging account" style="sketch=0;outlineConnect=0;fontColor=#232F3E;gradientColor=none;fillColor=#E7157B;strokeColor=none;dashed=0;verticalLabelPosition=bottom;verticalAlign=top;align=center;html=1;fontSize=24;fontStyle=0;aspect=fixed;pointerEvents=1;shape=mxgraph.aws4.organizations_account;" parent="MmJuiAPrky_wNMp2KEd6-6" vertex="1">
          <mxGeometry x="188.29473684210527" y="869.0494623655914" width="133.97798167503692" height="141.22003473855239" as="geometry" />
        </mxCell>
        <mxCell id="MmJuiAPrky_wNMp2KEd6-3" value="team 2&lt;br&gt;prod account" style="sketch=0;outlineConnect=0;fontColor=#232F3E;gradientColor=none;fillColor=#E7157B;strokeColor=none;dashed=0;verticalLabelPosition=bottom;verticalAlign=top;align=center;html=1;fontSize=24;fontStyle=0;aspect=fixed;pointerEvents=1;shape=mxgraph.aws4.organizations_account;" parent="MmJuiAPrky_wNMp2KEd6-6" vertex="1">
          <mxGeometry x="380.2105263157894" y="869.0494623655914" width="133.97798167503692" height="141.22003473855239" as="geometry" />
        </mxCell>
        <mxCell id="wZU1EFgH8yGKHLjDBOl6-1" value="textbox" parent="0" />
        <mxCell id="wZU1EFgH8yGKHLjDBOl6-2" value="&lt;h1 style=&quot;margin-top: 0px;&quot;&gt;&lt;p data-end=&quot;243&quot; data-start=&quot;190&quot;&gt;&lt;strong data-end=&quot;243&quot; data-start=&quot;190&quot;&gt;AWS Architecture – Using Multiple AWS Accounts&lt;/strong&gt;&lt;/p&gt;&lt;p data-end=&quot;334&quot; data-start=&quot;245&quot;&gt;Using multiple AWS accounts helps separate &lt;strong data-end=&quot;298&quot; data-start=&quot;288&quot;&gt;access&lt;/strong&gt;, &lt;strong data-end=&quot;311&quot; data-start=&quot;300&quot;&gt;billing&lt;/strong&gt;, and &lt;strong data-end=&quot;333&quot; data-start=&quot;317&quot;&gt;blast radius&lt;/strong&gt;.&lt;/p&gt;&lt;p data-end=&quot;491&quot; data-start=&quot;336&quot;&gt;For example, developers can access &lt;strong data-end=&quot;378&quot; data-start=&quot;371&quot;&gt;dev&lt;/strong&gt;, but not &lt;strong data-end=&quot;396&quot; data-start=&quot;388&quot;&gt;prod&lt;/strong&gt;. Costs stay isolated per environment. And if something breaks in &lt;strong data-end=&quot;469&quot; data-start=&quot;462&quot;&gt;dev&lt;/strong&gt;, &lt;strong data-end=&quot;479&quot; data-start=&quot;471&quot;&gt;prod&lt;/strong&gt; stays safe.&lt;/p&gt;&lt;p data-end=&quot;572&quot; data-start=&quot;493&quot;&gt;Deploying all environments in the same account increases the risk of accidents.&lt;/p&gt;&lt;p data-end=&quot;604&quot; data-start=&quot;579&quot;&gt;&lt;strong data-end=&quot;604&quot; data-start=&quot;579&quot;&gt;Account Structure&lt;/strong&gt;&lt;/p&gt;&lt;p data-end=&quot;678&quot; data-start=&quot;606&quot;&gt;Accounts are grouped into folders called &lt;strong data-end=&quot;677&quot; data-start=&quot;647&quot;&gt;Organizational Units (OUs)&lt;/strong&gt;.&lt;/p&gt;&lt;p data-end=&quot;774&quot; data-start=&quot;680&quot;&gt;&lt;strong data-end=&quot;697&quot; data-start=&quot;680&quot;&gt;Governance OU&lt;/strong&gt; – Owned by the &lt;strong data-end=&quot;727&quot; data-start=&quot;713&quot;&gt;Cloud Team&lt;/strong&gt;, this OU holds shared infrastructure accounts:&lt;/p&gt;&lt;ul data-end=&quot;954&quot; data-start=&quot;775&quot;&gt;&lt;li data-end=&quot;824&quot; data-start=&quot;775&quot;&gt;&lt;p data-end=&quot;824&quot; data-start=&quot;777&quot;&gt;&lt;strong data-end=&quot;791&quot; data-start=&quot;777&quot;&gt;Management&lt;/strong&gt; – For billing and org settings&lt;/p&gt;&lt;/li&gt;&lt;li data-end=&quot;895&quot; data-start=&quot;825&quot;&gt;&lt;p data-end=&quot;895&quot; data-start=&quot;827&quot;&gt;&lt;strong data-end=&quot;841&quot; data-start=&quot;827&quot;&gt;Networking&lt;/strong&gt; – For shared resources like DNS or datacenter links&lt;/p&gt;&lt;/li&gt;&lt;li data-end=&quot;954&quot; data-start=&quot;896&quot;&gt;&lt;p data-end=&quot;954&quot; data-start=&quot;898&quot;&gt;&lt;strong data-end=&quot;907&quot; data-start=&quot;898&quot;&gt;Audit&lt;/strong&gt; – For read-only security and monitoring access&lt;/p&gt;&lt;/li&gt;&lt;/ul&gt;&lt;p data-end=&quot;1153&quot; data-start=&quot;956&quot;&gt;&lt;strong data-end=&quot;971&quot; data-start=&quot;956&quot;&gt;Workload OU&lt;/strong&gt; – Owned by &lt;strong data-end=&quot;1002&quot; data-start=&quot;983&quot;&gt;Developer Teams&lt;/strong&gt;, this OU contains application environments:&lt;br data-end=&quot;1049&quot; data-start=&quot;1046&quot;&gt;&lt;br&gt;&lt;strong data-end=&quot;1056&quot; data-start=&quot;1049&quot;&gt;Dev&lt;/strong&gt; (development and early testing), &lt;strong data-end=&quot;1098&quot; data-start=&quot;1090&quot;&gt;Test&lt;/strong&gt; (integration/staging), and &lt;strong data-end=&quot;1134&quot; data-start=&quot;1126&quot;&gt;Prod&lt;/strong&gt; (live production).&lt;/p&gt;&lt;p data-end=&quot;1215&quot; data-start=&quot;1155&quot;&gt;Teams may have one set of these accounts per app or project.&lt;/p&gt;&lt;/h1&gt;" style="text;html=1;whiteSpace=wrap;overflow=hidden;rounded=1;fillColor=#f5f5f5;fontColor=#333333;strokeColor=#666666;strokeWidth=4;perimeterSpacing=0;arcSize=5;spacing=0;spacingLeft=30;spacingRight=30;fontSize=14;" vertex="1" parent="wZU1EFgH8yGKHLjDBOl6-1">
          <mxGeometry x="-1850" y="-230" width="990" height="1150" as="geometry" />
        </mxCell>
        <mxCell id="wZU1EFgH8yGKHLjDBOl6-3" value="&lt;h1 style=&quot;margin-top: 0px;&quot;&gt;&lt;p&gt;&lt;br&gt;&lt;/p&gt;&lt;p&gt;&lt;strong&gt;✅ Developer Takeaways&lt;/strong&gt;&lt;/p&gt;&lt;ul&gt;&lt;li&gt;&lt;p&gt;You’ll mostly work inside your &lt;strong&gt;team’s Dev/Test/Prod accounts&lt;/strong&gt; in a &#39;Workload OU&#39;.&lt;/p&gt;&lt;/li&gt;&lt;li&gt;&lt;p&gt;Shared infrastructure like networking and security tools or preventive security controls is &lt;strong&gt;set up and managed by the Cloud Team &lt;/strong&gt;and not always visible to the teams.&lt;/p&gt;&lt;/li&gt;&lt;/ul&gt;&lt;/h1&gt;" style="text;html=1;whiteSpace=wrap;overflow=hidden;rounded=1;fillColor=#f5f5f5;fontColor=#333333;strokeColor=#666666;strokeWidth=4;perimeterSpacing=0;arcSize=5;spacing=0;spacingLeft=30;spacingRight=30;fontSize=19;" vertex="1" parent="wZU1EFgH8yGKHLjDBOl6-1">
          <mxGeometry x="680" y="70" width="990" height="650" as="geometry" />
        </mxCell>
      </root>
    </mxGraphModel>
  </diagram>
  <diagram id="FUGytdyZ8HRWzfljV8M1" name="account baselining">
    <mxGraphModel dx="4274" dy="1657" grid="1" gridSize="10" guides="1" tooltips="1" connect="1" arrows="1" fold="1" page="1" pageScale="1" pageWidth="827" pageHeight="1169" math="0" shadow="0">
      <root>
        <mxCell id="0" />
        <mxCell id="1" style="locked=1;" parent="0" />
        <mxCell id="lpA3bPfUD1DCDSc6YLWP-1" value="&lt;font style=&quot;font-size: 26px;&quot;&gt;&lt;b&gt;AWS Account&lt;/b&gt;&lt;/font&gt;" style="points=[[0,0],[0.25,0],[0.5,0],[0.75,0],[1,0],[1,0.25],[1,0.5],[1,0.75],[1,1],[0.75,1],[0.5,1],[0.25,1],[0,1],[0,0.75],[0,0.5],[0,0.25]];outlineConnect=0;gradientColor=none;html=1;whiteSpace=wrap;fontSize=12;fontStyle=0;container=1;pointerEvents=0;collapsible=0;recursiveResize=0;shape=mxgraph.aws4.group;grIcon=mxgraph.aws4.group_account;strokeColor=#CD2264;fillColor=none;verticalAlign=top;align=left;spacingLeft=30;fontColor=#CD2264;dashed=0;" parent="1" vertex="1">
          <mxGeometry x="-190" y="240" width="720" height="860" as="geometry" />
        </mxCell>
        <mxCell id="lpA3bPfUD1DCDSc6YLWP-4" value="AWS config &lt;br&gt;aggregator" style="sketch=0;points=[[0,0,0],[0.25,0,0],[0.5,0,0],[0.75,0,0],[1,0,0],[0,1,0],[0.25,1,0],[0.5,1,0],[0.75,1,0],[1,1,0],[0,0.25,0],[0,0.5,0],[0,0.75,0],[1,0.25,0],[1,0.5,0],[1,0.75,0]];points=[[0,0,0],[0.25,0,0],[0.5,0,0],[0.75,0,0],[1,0,0],[0,1,0],[0.25,1,0],[0.5,1,0],[0.75,1,0],[1,1,0],[0,0.25,0],[0,0.5,0],[0,0.75,0],[1,0.25,0],[1,0.5,0],[1,0.75,0]];outlineConnect=0;fontColor=#232F3E;fillColor=#E7157B;strokeColor=#ffffff;dashed=0;verticalLabelPosition=bottom;verticalAlign=top;align=center;html=1;fontSize=12;fontStyle=0;aspect=fixed;shape=mxgraph.aws4.resourceIcon;resIcon=mxgraph.aws4.config;" parent="lpA3bPfUD1DCDSc6YLWP-1" vertex="1">
          <mxGeometry x="200" y="120" width="78" height="78" as="geometry" />
        </mxCell>
        <mxCell id="lpA3bPfUD1DCDSc6YLWP-6" value="AWS config &lt;br&gt;rules" style="sketch=0;points=[[0,0,0],[0.25,0,0],[0.5,0,0],[0.75,0,0],[1,0,0],[0,1,0],[0.25,1,0],[0.5,1,0],[0.75,1,0],[1,1,0],[0,0.25,0],[0,0.5,0],[0,0.75,0],[1,0.25,0],[1,0.5,0],[1,0.75,0]];points=[[0,0,0],[0.25,0,0],[0.5,0,0],[0.75,0,0],[1,0,0],[0,1,0],[0.25,1,0],[0.5,1,0],[0.75,1,0],[1,1,0],[0,0.25,0],[0,0.5,0],[0,0.75,0],[1,0.25,0],[1,0.5,0],[1,0.75,0]];outlineConnect=0;fontColor=#232F3E;fillColor=#E7157B;strokeColor=#ffffff;dashed=0;verticalLabelPosition=bottom;verticalAlign=top;align=center;html=1;fontSize=12;fontStyle=0;aspect=fixed;shape=mxgraph.aws4.resourceIcon;resIcon=mxgraph.aws4.config;" parent="lpA3bPfUD1DCDSc6YLWP-1" vertex="1">
          <mxGeometry x="200" y="250" width="78" height="78" as="geometry" />
        </mxCell>
        <mxCell id="lpA3bPfUD1DCDSc6YLWP-7" value="AWS Security Hub" style="sketch=0;points=[[0,0,0],[0.25,0,0],[0.5,0,0],[0.75,0,0],[1,0,0],[0,1,0],[0.25,1,0],[0.5,1,0],[0.75,1,0],[1,1,0],[0,0.25,0],[0,0.5,0],[0,0.75,0],[1,0.25,0],[1,0.5,0],[1,0.75,0]];outlineConnect=0;fontColor=#232F3E;fillColor=#DD344C;strokeColor=#ffffff;dashed=0;verticalLabelPosition=bottom;verticalAlign=top;align=center;html=1;fontSize=12;fontStyle=0;aspect=fixed;shape=mxgraph.aws4.resourceIcon;resIcon=mxgraph.aws4.security_hub;" parent="lpA3bPfUD1DCDSc6YLWP-1" vertex="1">
          <mxGeometry x="200" y="380" width="78" height="78" as="geometry" />
        </mxCell>
        <mxCell id="lpA3bPfUD1DCDSc6YLWP-8" value="AWS SNS&lt;br&gt;- Topic for notifications" style="sketch=0;points=[[0,0,0],[0.25,0,0],[0.5,0,0],[0.75,0,0],[1,0,0],[0,1,0],[0.25,1,0],[0.5,1,0],[0.75,1,0],[1,1,0],[0,0.25,0],[0,0.5,0],[0,0.75,0],[1,0.25,0],[1,0.5,0],[1,0.75,0]];outlineConnect=0;fontColor=#232F3E;fillColor=#E7157B;strokeColor=#ffffff;dashed=0;verticalLabelPosition=bottom;verticalAlign=top;align=center;html=1;fontSize=12;fontStyle=0;aspect=fixed;shape=mxgraph.aws4.resourceIcon;resIcon=mxgraph.aws4.sns;" parent="lpA3bPfUD1DCDSc6YLWP-1" vertex="1">
          <mxGeometry x="200" y="513" width="78" height="78" as="geometry" />
        </mxCell>
        <mxCell id="lpA3bPfUD1DCDSc6YLWP-14" value="" style="group;fontStyle=4" parent="lpA3bPfUD1DCDSc6YLWP-1" vertex="1" connectable="0">
          <mxGeometry x="370" y="120" width="79" height="431" as="geometry" />
        </mxCell>
        <mxCell id="lpA3bPfUD1DCDSc6YLWP-9" value="AWS Budgets" style="sketch=0;points=[[0,0,0],[0.25,0,0],[0.5,0,0],[0.75,0,0],[1,0,0],[0,1,0],[0.25,1,0],[0.5,1,0],[0.75,1,0],[1,1,0],[0,0.25,0],[0,0.5,0],[0,0.75,0],[1,0.25,0],[1,0.5,0],[1,0.75,0]];outlineConnect=0;fontColor=#232F3E;fillColor=#7AA116;strokeColor=#ffffff;dashed=0;verticalLabelPosition=bottom;verticalAlign=top;align=center;html=1;fontSize=12;fontStyle=0;aspect=fixed;shape=mxgraph.aws4.resourceIcon;resIcon=mxgraph.aws4.budgets_2;" parent="lpA3bPfUD1DCDSc6YLWP-14" vertex="1">
          <mxGeometry x="1" y="130" width="78" height="78" as="geometry" />
        </mxCell>
        <mxCell id="lpA3bPfUD1DCDSc6YLWP-10" value="AWS Cost Explorer" style="sketch=0;points=[[0,0,0],[0.25,0,0],[0.5,0,0],[0.75,0,0],[1,0,0],[0,1,0],[0.25,1,0],[0.5,1,0],[0.75,1,0],[1,1,0],[0,0.25,0],[0,0.5,0],[0,0.75,0],[1,0.25,0],[1,0.5,0],[1,0.75,0]];outlineConnect=0;fontColor=#232F3E;fillColor=#7AA116;strokeColor=#ffffff;dashed=0;verticalLabelPosition=bottom;verticalAlign=top;align=center;html=1;fontSize=12;fontStyle=0;aspect=fixed;shape=mxgraph.aws4.resourceIcon;resIcon=mxgraph.aws4.cost_explorer;" parent="lpA3bPfUD1DCDSc6YLWP-14" vertex="1">
          <mxGeometry width="78" height="78" as="geometry" />
        </mxCell>
        <mxCell id="lpA3bPfUD1DCDSc6YLWP-11" value="AWS CloudTrail" style="sketch=0;points=[[0,0,0],[0.25,0,0],[0.5,0,0],[0.75,0,0],[1,0,0],[0,1,0],[0.25,1,0],[0.5,1,0],[0.75,1,0],[1,1,0],[0,0.25,0],[0,0.5,0],[0,0.75,0],[1,0.25,0],[1,0.5,0],[1,0.75,0]];points=[[0,0,0],[0.25,0,0],[0.5,0,0],[0.75,0,0],[1,0,0],[0,1,0],[0.25,1,0],[0.5,1,0],[0.75,1,0],[1,1,0],[0,0.25,0],[0,0.5,0],[0,0.75,0],[1,0.25,0],[1,0.5,0],[1,0.75,0]];outlineConnect=0;fontColor=#232F3E;fillColor=#E7157B;strokeColor=#ffffff;dashed=0;verticalLabelPosition=bottom;verticalAlign=top;align=center;html=1;fontSize=12;fontStyle=0;aspect=fixed;shape=mxgraph.aws4.resourceIcon;resIcon=mxgraph.aws4.cloudtrail;" parent="lpA3bPfUD1DCDSc6YLWP-14" vertex="1">
          <mxGeometry y="260" width="78" height="78" as="geometry" />
        </mxCell>
        <mxCell id="lpA3bPfUD1DCDSc6YLWP-12" value="Networking&lt;br&gt;AWS VPC&lt;br&gt;AWS Route53 (DNS)&lt;br&gt;AWS Transit Gateway &lt;br&gt;(connect to on-prem)" style="sketch=0;points=[[0,0,0],[0.25,0,0],[0.5,0,0],[0.75,0,0],[1,0,0],[0,1,0],[0.25,1,0],[0.5,1,0],[0.75,1,0],[1,1,0],[0,0.25,0],[0,0.5,0],[0,0.75,0],[1,0.25,0],[1,0.5,0],[1,0.75,0]];outlineConnect=0;fontColor=#232F3E;fillColor=#8C4FFF;strokeColor=#ffffff;dashed=0;verticalLabelPosition=bottom;verticalAlign=top;align=center;html=1;fontSize=12;fontStyle=0;aspect=fixed;shape=mxgraph.aws4.resourceIcon;resIcon=mxgraph.aws4.vpc;" parent="lpA3bPfUD1DCDSc6YLWP-1" vertex="1">
          <mxGeometry x="370" y="520" width="78" height="78" as="geometry" />
        </mxCell>
        <mxCell id="lpA3bPfUD1DCDSc6YLWP-19" value="&lt;font style=&quot;font-size: 29px;&quot;&gt;&lt;b&gt;baseline resources&lt;/b&gt;&lt;/font&gt;" style="fillColor=none;strokeColor=#5A6C86;verticalAlign=top;fontStyle=0;fontColor=#5A6C86;whiteSpace=wrap;html=1;" parent="lpA3bPfUD1DCDSc6YLWP-1" vertex="1">
          <mxGeometry x="160" y="70" width="360" height="616" as="geometry" />
        </mxCell>
        <mxCell id="lpA3bPfUD1DCDSc6YLWP-20" value="" style="group;" parent="lpA3bPfUD1DCDSc6YLWP-1" vertex="1" connectable="0">
          <mxGeometry x="150" y="730" width="400" height="130" as="geometry" />
        </mxCell>
        <mxCell id="lpA3bPfUD1DCDSc6YLWP-15" value="&lt;font style=&quot;font-size: 25px;&quot;&gt;&lt;b&gt;your actual workload resources&lt;/b&gt;&lt;/font&gt;" style="fillColor=none;strokeColor=default;verticalAlign=top;fontStyle=0;fontColor=#5A6C86;whiteSpace=wrap;html=1;opacity=50;" parent="lpA3bPfUD1DCDSc6YLWP-20" vertex="1">
          <mxGeometry width="400" height="130" as="geometry" />
        </mxCell>
        <mxCell id="lpA3bPfUD1DCDSc6YLWP-16" value="" style="sketch=0;points=[[0,0,0],[0.25,0,0],[0.5,0,0],[0.75,0,0],[1,0,0],[0,1,0],[0.25,1,0],[0.5,1,0],[0.75,1,0],[1,1,0],[0,0.25,0],[0,0.5,0],[0,0.75,0],[1,0.25,0],[1,0.5,0],[1,0.75,0]];outlineConnect=0;fontColor=#232F3E;fillColor=#ED7100;strokeColor=#ffffff;dashed=0;verticalLabelPosition=bottom;verticalAlign=top;align=center;html=1;fontSize=12;fontStyle=0;aspect=fixed;shape=mxgraph.aws4.resourceIcon;resIcon=mxgraph.aws4.lambda;opacity=50;" parent="lpA3bPfUD1DCDSc6YLWP-20" vertex="1">
          <mxGeometry x="11.11111111111111" y="40" width="78" height="78" as="geometry" />
        </mxCell>
        <mxCell id="lpA3bPfUD1DCDSc6YLWP-17" value="" style="sketch=0;points=[[0,0,0],[0.25,0,0],[0.5,0,0],[0.75,0,0],[1,0,0],[0,1,0],[0.25,1,0],[0.5,1,0],[0.75,1,0],[1,1,0],[0,0.25,0],[0,0.5,0],[0,0.75,0],[1,0.25,0],[1,0.5,0],[1,0.75,0]];outlineConnect=0;fontColor=#232F3E;fillColor=#ED7100;strokeColor=#ffffff;dashed=0;verticalLabelPosition=bottom;verticalAlign=top;align=center;html=1;fontSize=12;fontStyle=0;aspect=fixed;shape=mxgraph.aws4.resourceIcon;resIcon=mxgraph.aws4.ec2;opacity=50;" parent="lpA3bPfUD1DCDSc6YLWP-20" vertex="1">
          <mxGeometry x="288.8888888888889" y="40" width="78" height="78" as="geometry" />
        </mxCell>
        <mxCell id="lpA3bPfUD1DCDSc6YLWP-18" value="" style="sketch=0;points=[[0,0,0],[0.25,0,0],[0.5,0,0],[0.75,0,0],[1,0,0],[0,1,0],[0.25,1,0],[0.5,1,0],[0.75,1,0],[1,1,0],[0,0.25,0],[0,0.5,0],[0,0.75,0],[1,0.25,0],[1,0.5,0],[1,0.75,0]];outlineConnect=0;fontColor=#232F3E;fillColor=#C925D1;strokeColor=#ffffff;dashed=0;verticalLabelPosition=bottom;verticalAlign=top;align=center;html=1;fontSize=12;fontStyle=0;aspect=fixed;shape=mxgraph.aws4.resourceIcon;resIcon=mxgraph.aws4.rds;opacity=50;" parent="lpA3bPfUD1DCDSc6YLWP-20" vertex="1">
          <mxGeometry x="144.44444444444446" y="40" width="78" height="78" as="geometry" />
        </mxCell>
        <mxCell id="yU_8fCdCkggGm4z5NWsT-1" value="textbox" parent="0" />
        <mxCell id="yU_8fCdCkggGm4z5NWsT-2" value="&lt;h1 style=&quot;margin-top: 0px;&quot;&gt;Baselining AWS accounts&lt;/h1&gt;&lt;h1 style=&quot;margin-top: 0px;&quot;&gt;&lt;span style=&quot;font-weight: normal;&quot;&gt;Accounts are filled with baseline resources to avoid chaos. A baseline ensures that every AWS account—whether for dev or prod—has a standard set of security, logging, and budget tools from day one. This prevents surprises, helps with troubleshooting, and keeps you out of trouble with auditors or the cloud team.&lt;/span&gt;&lt;/h1&gt;&lt;h1 style=&quot;margin-top: 0px;&quot;&gt;&lt;span style=&quot;font-weight: normal;&quot;&gt;Without a baseline, you&#39;d have to set up logging, cost alerts, and security checks manually. Worse, something might go unnoticed—like a public S3 bucket or a $10k mistake.&lt;/span&gt;&lt;/h1&gt;&lt;h1 style=&quot;margin-top: 0px;&quot;&gt;What’s in a typical baseline?&lt;/h1&gt;&lt;h1 style=&quot;margin-top: 0px;&quot;&gt;&lt;span style=&quot;font-weight: normal;&quot;&gt;Almost all orgs apply these services automatically when an account is created:&lt;/span&gt;&lt;/h1&gt;&lt;h1 style=&quot;margin-top: 0px;&quot;&gt;&lt;ul&gt;&lt;li&gt;&lt;span style=&quot;font-weight: normal;&quot;&gt;AWS Config Aggregator – Lets the cloud team see how resources (like EC2 or S3 Buckets) change over time across all accounts, so they can spot issues or help troubleshoot.&lt;/span&gt;&lt;/li&gt;&lt;li&gt;&lt;span style=&quot;font-weight: normal;&quot;&gt;AWS Config Rules – Set rule-based alerts when resources are not configured correctly (e.g. EBS Volume without encryption).&lt;/span&gt;&lt;/li&gt;&lt;li&gt;&lt;span style=&quot;font-weight: normal;&quot;&gt;Security Hub – Shows a security score and findings based on AWS best practices (e.g. don&#39;t give full Admin Access to AWS resources)&lt;/span&gt;&lt;/li&gt;&lt;li&gt;&lt;span style=&quot;font-weight: normal;&quot;&gt;GuardDuty – Detects threats like unusual API calls or port scanning.&lt;/span&gt;&lt;/li&gt;&lt;li&gt;&lt;span style=&quot;font-weight: normal;&quot;&gt;CloudTrail – Logs all API activity in the account (who did what, when).&lt;/span&gt;&lt;/li&gt;&lt;li&gt;&lt;span style=&quot;font-weight: normal;&quot;&gt;Budgets &amp;amp; Cost Anomalies – Sends alerts if costs spike unexpectedly.&lt;/span&gt;&lt;/li&gt;&lt;li&gt;&lt;span style=&quot;font-weight: normal;&quot;&gt;SNS Topics for Alerts – Centralized alerting pipeline (e.g. connects to Slack/email when an alert occurs).&lt;/span&gt;&lt;/li&gt;&lt;li&gt;&lt;span style=&quot;font-weight: normal;&quot;&gt;(Optional) Networking infrastructure – For standardized, or centralized networking. Sometimes left to developers.&lt;/span&gt;&lt;/li&gt;&lt;/ul&gt;&lt;/h1&gt;&lt;h1 style=&quot;margin-top: 0px;&quot;&gt;&lt;span style=&quot;font-weight: normal;&quot;&gt;The cloud team usually maintains such infra, and typically much more (firewall rules etc.) this so you can focus on building.&lt;/span&gt;&lt;/h1&gt;&lt;h1 style=&quot;margin-top: 0px;&quot;&gt;&lt;br&gt;&lt;/h1&gt;" style="text;html=1;whiteSpace=wrap;overflow=hidden;rounded=1;fillColor=#f5f5f5;fontColor=#333333;strokeColor=#666666;arcSize=8;spacingLeft=30;spacingBottom=30;container=1;spacingTop=30;spacingRight=10;" vertex="1" parent="yU_8fCdCkggGm4z5NWsT-1">
          <mxGeometry x="-950" y="100" width="700" height="1210" as="geometry" />
        </mxCell>
        <mxCell id="yU_8fCdCkggGm4z5NWsT-3" value="&lt;h1 style=&quot;forced-color-adjust: none; margin-top: 0px;&quot;&gt;✅ Developer Takeaway&lt;/h1&gt;&lt;h1 style=&quot;forced-color-adjust: none; margin-top: 0px;&quot;&gt;&lt;span style=&quot;forced-color-adjust: none; font-weight: normal;&quot;&gt;You don’t need to set these up yourself, but you need to learn to use them! The cloud team is watching what happens in your account, but it is YOUR responsibility when a security finding happens to act on it, and know where to find the correct information.&amp;nbsp;&lt;br&gt;&lt;br&gt;Cloud teams don&#39;t want you to disable these services, and sometimes prevent disabling them by implementing policies in their management AWS account.&amp;nbsp;&lt;/span&gt;&lt;/h1&gt;&lt;h1 style=&quot;forced-color-adjust: none; margin-top: 0px;&quot;&gt;&lt;span style=&quot;forced-color-adjust: none; font-weight: normal;&quot;&gt;Follow&amp;nbsp; the cloud team&#39;s rules and optional tagging policies to avoid confusion, alerts, or unnecessary cost.&lt;/span&gt;&lt;/h1&gt;&lt;h1 style=&quot;forced-color-adjust: none; margin-top: 0px;&quot;&gt;&lt;br style=&quot;forced-color-adjust: none; color: rgb(0, 0, 0); font-family: Helvetica; font-size: 24px; font-style: normal; font-variant-ligatures: normal; font-variant-caps: normal; font-weight: 700; letter-spacing: normal; orphans: 2; text-align: left; text-indent: 0px; text-transform: none; widows: 2; word-spacing: 0px; -webkit-text-stroke-width: 0px; white-space: normal; background-color: rgb(236, 236, 236); text-decoration-thickness: initial; text-decoration-style: initial; text-decoration-color: initial;&quot;&gt;&lt;br&gt;&lt;br&gt;&lt;/h1&gt;" style="text;whiteSpace=wrap;html=1;fillColor=#f5f5f5;fontColor=#333333;strokeColor=#666666;glass=0;rounded=1;arcSize=5;spacingLeft=30;spacingBottom=30;" vertex="1" parent="yU_8fCdCkggGm4z5NWsT-1">
          <mxGeometry x="590" y="420" width="560" height="570" as="geometry" />
        </mxCell>
      </root>
    </mxGraphModel>
  </diagram>
  <diagram id="YSY4QHUJMfdOPj4u1C4d" name="single-account-networking">
    <mxGraphModel dx="3619" dy="2412" grid="1" gridSize="10" guides="1" tooltips="1" connect="1" arrows="1" fold="1" page="1" pageScale="1" pageWidth="827" pageHeight="1169" math="0" shadow="0">
      <root>
        <mxCell id="0" />
        <mxCell id="1" style="locked=1;" parent="0" />
        <mxCell id="pj7KY4LGGrOLGO--IbNb-1" value="AWS Account" style="points=[[0,0],[0.25,0],[0.5,0],[0.75,0],[1,0],[1,0.25],[1,0.5],[1,0.75],[1,1],[0.75,1],[0.5,1],[0.25,1],[0,1],[0,0.75],[0,0.5],[0,0.25]];outlineConnect=0;gradientColor=none;html=1;whiteSpace=wrap;fontSize=12;fontStyle=0;container=1;pointerEvents=0;collapsible=0;recursiveResize=0;shape=mxgraph.aws4.group;grIcon=mxgraph.aws4.group_account;strokeColor=#CD2264;fillColor=none;verticalAlign=top;align=left;spacingLeft=30;fontColor=#CD2264;dashed=0;" parent="1" vertex="1">
          <mxGeometry x="-250" y="180" width="560" height="660" as="geometry" />
        </mxCell>
        <mxCell id="zlXhHFCFRVeVFCevLoM9-2" value="VPC" style="sketch=0;outlineConnect=0;gradientColor=none;html=1;whiteSpace=wrap;fontSize=12;fontStyle=0;shape=mxgraph.aws4.group;grIcon=mxgraph.aws4.group_vpc;strokeColor=#879196;fillColor=none;verticalAlign=top;align=left;spacingLeft=30;fontColor=#879196;dashed=0;" parent="pj7KY4LGGrOLGO--IbNb-1" vertex="1">
          <mxGeometry x="80.5" y="250" width="410" height="350" as="geometry" />
        </mxCell>
        <mxCell id="zlXhHFCFRVeVFCevLoM9-3" value="EC2 Instance" style="sketch=0;points=[[0,0,0],[0.25,0,0],[0.5,0,0],[0.75,0,0],[1,0,0],[0,1,0],[0.25,1,0],[0.5,1,0],[0.75,1,0],[1,1,0],[0,0.25,0],[0,0.5,0],[0,0.75,0],[1,0.25,0],[1,0.5,0],[1,0.75,0]];outlineConnect=0;fontColor=#232F3E;fillColor=#ED7100;strokeColor=#ffffff;dashed=0;verticalLabelPosition=bottom;verticalAlign=top;align=center;html=1;fontSize=12;fontStyle=0;aspect=fixed;shape=mxgraph.aws4.resourceIcon;resIcon=mxgraph.aws4.ec2;" parent="pj7KY4LGGrOLGO--IbNb-1" vertex="1">
          <mxGeometry x="120.5" y="300" width="78" height="78" as="geometry" />
        </mxCell>
        <mxCell id="zlXhHFCFRVeVFCevLoM9-4" value="ECS task" style="sketch=0;points=[[0,0,0],[0.25,0,0],[0.5,0,0],[0.75,0,0],[1,0,0],[0,1,0],[0.25,1,0],[0.5,1,0],[0.75,1,0],[1,1,0],[0,0.25,0],[0,0.5,0],[0,0.75,0],[1,0.25,0],[1,0.5,0],[1,0.75,0]];outlineConnect=0;fontColor=#232F3E;fillColor=#ED7100;strokeColor=#ffffff;dashed=0;verticalLabelPosition=bottom;verticalAlign=top;align=center;html=1;fontSize=12;fontStyle=0;aspect=fixed;shape=mxgraph.aws4.resourceIcon;resIcon=mxgraph.aws4.ecs;" parent="pj7KY4LGGrOLGO--IbNb-1" vertex="1">
          <mxGeometry x="240.5" y="300" width="78" height="78" as="geometry" />
        </mxCell>
        <mxCell id="zlXhHFCFRVeVFCevLoM9-8" value="DynamoDb Table" style="sketch=0;points=[[0,0,0],[0.25,0,0],[0.5,0,0],[0.75,0,0],[1,0,0],[0,1,0],[0.25,1,0],[0.5,1,0],[0.75,1,0],[1,1,0],[0,0.25,0],[0,0.5,0],[0,0.75,0],[1,0.25,0],[1,0.5,0],[1,0.75,0]];outlineConnect=0;fontColor=#232F3E;fillColor=#C925D1;strokeColor=#ffffff;dashed=0;verticalLabelPosition=bottom;verticalAlign=top;align=center;html=1;fontSize=12;fontStyle=0;aspect=fixed;shape=mxgraph.aws4.resourceIcon;resIcon=mxgraph.aws4.dynamodb;" parent="pj7KY4LGGrOLGO--IbNb-1" vertex="1">
          <mxGeometry x="120" y="40" width="78" height="78" as="geometry" />
        </mxCell>
        <mxCell id="zlXhHFCFRVeVFCevLoM9-9" value="S3 Bucket" style="sketch=0;outlineConnect=0;fontColor=#232F3E;gradientColor=none;fillColor=#7AA116;strokeColor=none;dashed=0;verticalLabelPosition=bottom;verticalAlign=top;align=center;html=1;fontSize=12;fontStyle=0;aspect=fixed;pointerEvents=1;shape=mxgraph.aws4.bucket;" parent="pj7KY4LGGrOLGO--IbNb-1" vertex="1">
          <mxGeometry x="248" y="40" width="75" height="78" as="geometry" />
        </mxCell>
        <mxCell id="zlXhHFCFRVeVFCevLoM9-10" value="AWS Application &lt;br&gt;Load Balancer" style="sketch=0;outlineConnect=0;fontColor=#232F3E;gradientColor=none;fillColor=#8C4FFF;strokeColor=none;dashed=0;verticalLabelPosition=bottom;verticalAlign=top;align=center;html=1;fontSize=12;fontStyle=0;aspect=fixed;pointerEvents=1;shape=mxgraph.aws4.application_load_balancer;" parent="pj7KY4LGGrOLGO--IbNb-1" vertex="1">
          <mxGeometry x="370.5" y="300" width="78" height="78" as="geometry" />
        </mxCell>
        <mxCell id="zlXhHFCFRVeVFCevLoM9-11" value="CloudFront Distribution" style="sketch=0;points=[[0,0,0],[0.25,0,0],[0.5,0,0],[0.75,0,0],[1,0,0],[0,1,0],[0.25,1,0],[0.5,1,0],[0.75,1,0],[1,1,0],[0,0.25,0],[0,0.5,0],[0,0.75,0],[1,0.25,0],[1,0.5,0],[1,0.75,0]];outlineConnect=0;fontColor=#232F3E;fillColor=#8C4FFF;strokeColor=#ffffff;dashed=0;verticalLabelPosition=bottom;verticalAlign=top;align=center;html=1;fontSize=12;fontStyle=0;aspect=fixed;shape=mxgraph.aws4.resourceIcon;resIcon=mxgraph.aws4.cloudfront;" parent="pj7KY4LGGrOLGO--IbNb-1" vertex="1">
          <mxGeometry x="370" y="40" width="78" height="78" as="geometry" />
        </mxCell>
        <mxCell id="W1zuWMnPYM_l5iYGmvtb-1" value="textbox" style="" parent="0" />
        <mxCell id="W1zuWMnPYM_l5iYGmvtb-2" value="&lt;h1 style=&quot;margin-top: 0px;&quot;&gt;&lt;p data-end=&quot;316&quot; data-start=&quot;282&quot;&gt;&lt;strong data-end=&quot;316&quot; data-start=&quot;282&quot;&gt;AWS Networking – VPC vs non-VPC resources&lt;/strong&gt;&lt;/p&gt;&lt;p data-end=&quot;559&quot; data-start=&quot;318&quot;&gt;When you run code in AWS — like on &lt;strong data-end=&quot;360&quot; data-start=&quot;353&quot;&gt;EC2&lt;/strong&gt; or &lt;strong data-end=&quot;374&quot; data-start=&quot;364&quot;&gt;Lambda&lt;/strong&gt; — it cannot automatically connect to every other system in AWS or even the internet.&lt;br data-end=&quot;431&quot; data-start=&quot;428&quot;&gt;&lt;br&gt;&lt;strong data-end=&quot;559&quot; data-start=&quot;431&quot;&gt;Networking decides what your code can connect to. IAM decides whether access is allowed &lt;em data-end=&quot;556&quot; data-start=&quot;521&quot;&gt;after a connection is established&lt;/em&gt;.&lt;/strong&gt;&lt;/p&gt;&lt;p data-end=&quot;717&quot; data-start=&quot;566&quot;&gt;&lt;strong data-end=&quot;600&quot; data-start=&quot;566&quot;&gt;VPC resources&lt;/strong&gt;&lt;br&gt;AWS resources like&amp;nbsp;&lt;strong data-end=&quot;624&quot; data-start=&quot;617&quot;&gt;EC2 instances&lt;/strong&gt;, ECS tasks, RDS&amp;nbsp;&lt;strong data-end=&quot;639&quot; data-start=&quot;626&quot;&gt;databases&lt;/strong&gt;, and &lt;strong data-end=&quot;662&quot; data-start=&quot;645&quot;&gt;internal APIs&lt;/strong&gt;&lt;span style=&quot;font-weight: normal;&quot; data-end=&quot;662&quot; data-start=&quot;645&quot;&gt; use servers that&lt;/span&gt; live inside a &lt;strong data-end=&quot;696&quot; data-start=&quot;677&quot;&gt;private network&lt;/strong&gt;, called a &lt;strong data-end=&quot;714&quot; data-start=&quot;707&quot;&gt;VPC&lt;/strong&gt;.&lt;/p&gt;&lt;p data-end=&quot;767&quot; data-start=&quot;719&quot;&gt;Your code can only reach them if it’s running:&lt;/p&gt;&lt;ul data-end=&quot;858&quot; data-start=&quot;768&quot;&gt;&lt;li data-end=&quot;795&quot; data-start=&quot;768&quot;&gt;&lt;p data-end=&quot;795&quot; data-start=&quot;770&quot;&gt;in the &lt;strong data-end=&quot;789&quot; data-start=&quot;777&quot;&gt;same VPC&lt;/strong&gt;, or&lt;/p&gt;&lt;/li&gt;&lt;li data-end=&quot;858&quot; data-start=&quot;796&quot;&gt;&lt;p data-end=&quot;858&quot; data-start=&quot;798&quot;&gt;in a &lt;strong data-end=&quot;820&quot; data-start=&quot;803&quot;&gt;connected VPC&lt;/strong&gt; (via VPC peering or Transit Gateway).&lt;/p&gt;&lt;/li&gt;&lt;/ul&gt;&lt;p data-end=&quot;999&quot; data-start=&quot;860&quot;&gt;These services don’t have internet access by default — you need to explicitly add it (e.g. using public subnets and a&amp;nbsp;&lt;strong data-end=&quot;973&quot; data-start=&quot;958&quot;&gt;NAT Gateway&lt;/strong&gt; and&amp;nbsp;&lt;strong data-end=&quot;997&quot; data-start=&quot;977&quot;&gt;Internet Gateway. More on this later&lt;/strong&gt;).&lt;/p&gt;&lt;p data-end=&quot;1253&quot; data-start=&quot;1006&quot;&gt;&lt;strong data-end=&quot;1046&quot; data-start=&quot;1006&quot;&gt;Non-VPC resources&lt;/strong&gt;&lt;br data-end=&quot;1049&quot; data-start=&quot;1046&quot;&gt;&lt;br&gt;Many &#39;serverless&#39; resources like &lt;strong data-end=&quot;1069&quot; data-start=&quot;1063&quot;&gt;S3 buckets&lt;/strong&gt;&lt;span data-end=&quot;1069&quot; data-start=&quot;1063&quot;&gt;,&amp;nbsp;&lt;/span&gt;&lt;strong data-end=&quot;1086&quot; data-start=&quot;1074&quot;&gt;DynamoDB&lt;/strong&gt;&amp;nbsp;tables, or Step functions are running on &#39;public&#39; servers — anyone with internet access can reach them.&lt;br data-end=&quot;1139&quot; data-start=&quot;1136&quot;&gt;&lt;br&gt;But access is still &lt;strong data-end=&quot;1180&quot; data-start=&quot;1159&quot;&gt;controlled by IAM&lt;/strong&gt;. The public internet may reach the service, but IAM decides who gets in.&lt;/p&gt;&lt;p data-end=&quot;1513&quot; data-start=&quot;1260&quot;&gt;&lt;strong data-end=&quot;1292&quot; data-start=&quot;1260&quot;&gt;⚙️ Services That Can Be Both&lt;/strong&gt;&lt;br data-end=&quot;1295&quot; data-start=&quot;1292&quot;&gt;&lt;br&gt;Some services — like &lt;strong data-end=&quot;1326&quot; data-start=&quot;1316&quot;&gt;Lambda Functions&amp;nbsp;&lt;/strong&gt;— can run &lt;strong data-end=&quot;1366&quot; data-start=&quot;1356&quot;&gt;inside&lt;/strong&gt; your VPC (to talk to private services), or &lt;strong data-end=&quot;1421&quot; data-start=&quot;1410&quot;&gt;outside&lt;/strong&gt; it (for simpler internet access).&lt;br data-end=&quot;1458&quot; data-start=&quot;1455&quot;&gt;&lt;br&gt;You choose based on what your code needs to connect to.&lt;/p&gt;&lt;/h1&gt;" style="text;html=1;whiteSpace=wrap;overflow=hidden;rounded=1;fillColor=#f5f5f5;fontColor=#333333;strokeColor=#666666;arcSize=8;spacingLeft=30;spacingBottom=30;container=1;spacingRight=30;" vertex="1" parent="W1zuWMnPYM_l5iYGmvtb-1">
          <mxGeometry x="-1430" y="-80" width="700" height="1400" as="geometry" />
        </mxCell>
        <mxCell id="W1zuWMnPYM_l5iYGmvtb-3" value="&lt;h1 style=&quot;margin-top: 0px;&quot;&gt;&lt;ul data-end=&quot;475&quot; data-start=&quot;123&quot;&gt;&lt;article data-scroll-anchor=&quot;true&quot; data-testid=&quot;conversation-turn-54&quot; dir=&quot;auto&quot; class=&quot;text-token-text-primary w-full&quot;&gt;&lt;div class=&quot;text-base my-auto mx-auto py-5 [--thread-content-margin:--spacing(4)] @[37rem]:[--thread-content-margin:--spacing(6)] @[72rem]:[--thread-content-margin:--spacing(16)] px-(--thread-content-margin)&quot;&gt;&lt;div tabindex=&quot;-1&quot; class=&quot;[--thread-content-max-width:32rem] @[34rem]:[--thread-content-max-width:40rem] @[64rem]:[--thread-content-max-width:48rem] mx-auto flex max-w-(--thread-content-max-width) flex-1 text-base gap-4 md:gap-5 lg:gap-6 group/turn-messages focus-visible:outline-hidden&quot;&gt;&lt;div class=&quot;group/conversation-turn relative flex w-full min-w-0 flex-col agent-turn&quot;&gt;&lt;div class=&quot;relative flex-col gap-1 md:gap-3&quot;&gt;&lt;div class=&quot;flex max-w-full flex-col grow&quot;&gt;&lt;div data-message-model-slug=&quot;gpt-4o&quot; class=&quot;min-h-8 text-message relative flex w-full flex-col items-end gap-2 text-start break-words whitespace-normal [.text-message+&amp;amp;]:mt-5&quot; dir=&quot;auto&quot; data-message-id=&quot;4bef6c2c-f353-4200-884c-3217d6e29ec3&quot; data-message-author-role=&quot;assistant&quot;&gt;&lt;div class=&quot;flex w-full flex-col gap-1 empty:hidden first:pt-[3px]&quot;&gt;&lt;div class=&quot;markdown prose dark:prose-invert w-full break-words light&quot;&gt;&lt;p data-end=&quot;109&quot; data-start=&quot;85&quot;&gt;&lt;strong data-end=&quot;109&quot; data-start=&quot;85&quot;&gt;✅ Developer Takeaway&lt;/strong&gt;&lt;/p&gt;&lt;ul data-is-only-node=&quot;&quot; data-is-last-node=&quot;&quot; data-end=&quot;598&quot; data-start=&quot;111&quot;&gt;&lt;li data-end=&quot;161&quot; data-start=&quot;111&quot;&gt;&lt;p data-end=&quot;161&quot; data-start=&quot;113&quot;&gt;Not all AWS services live in the same network.&lt;/p&gt;&lt;/li&gt;&lt;li data-end=&quot;272&quot; data-start=&quot;162&quot;&gt;&lt;p data-end=&quot;272&quot; data-start=&quot;164&quot;&gt;&lt;strong data-end=&quot;181&quot; data-start=&quot;164&quot;&gt;VPC resources&lt;/strong&gt; (like EC2 or RDS) need your code to be in the &lt;strong data-end=&quot;255&quot; data-start=&quot;228&quot;&gt;same or a connected VPC&lt;/strong&gt; to reach them.&lt;/p&gt;&lt;/li&gt;&lt;li data-end=&quot;381&quot; data-start=&quot;273&quot;&gt;&lt;p data-end=&quot;381&quot; data-start=&quot;275&quot;&gt;&lt;strong data-end=&quot;295&quot; data-start=&quot;275&quot;&gt;Non-VPC services&lt;/strong&gt; (like S3 or DynamoDB) are reachable from the internet, but &lt;strong data-end=&quot;378&quot; data-start=&quot;355&quot;&gt;IAM still controls access&lt;/strong&gt;.&lt;/p&gt;&lt;/li&gt;&lt;li data-end=&quot;467&quot; data-start=&quot;382&quot;&gt;&lt;p data-end=&quot;467&quot; data-start=&quot;384&quot;&gt;If your code can’t reach something, it’s often a &lt;strong data-end=&quot;453&quot; data-start=&quot;433&quot;&gt;networking issue&lt;/strong&gt;, not a bug.&lt;/p&gt;&lt;/li&gt;&lt;li data-is-last-node=&quot;&quot; data-end=&quot;598&quot; data-start=&quot;468&quot;&gt;&lt;p data-is-last-node=&quot;&quot; data-end=&quot;598&quot; data-start=&quot;470&quot;&gt;For services like &lt;strong data-end=&quot;498&quot; data-start=&quot;488&quot;&gt;Lambda&lt;/strong&gt;, you choose whether it runs &lt;strong data-end=&quot;554&quot; data-start=&quot;527&quot;&gt;inside or outside a VPC&lt;/strong&gt; — depending on what it needs to connect to&lt;/p&gt;&lt;/li&gt;&lt;li data-end=&quot;546&quot; data-start=&quot;414&quot;&gt;&lt;p data-end=&quot;546&quot; data-start=&quot;416&quot;&gt;&lt;strong data-end=&quot;466&quot; data-start=&quot;416&quot;&gt;True** serverless services are often easier to set up&lt;/strong&gt;, since they’re publicly reachable — no need to configure or debug networking&amp;nbsp;&lt;br&gt;**semi-serverless services like AWS ECS on Fargate still require networking&amp;nbsp;&lt;/p&gt;&lt;br&gt;&lt;/li&gt;&lt;br&gt;&lt;li data-end=&quot;632&quot; data-start=&quot;547&quot;&gt;&lt;br&gt;&lt;p data-end=&quot;632&quot; data-start=&quot;549&quot;&gt;&lt;/p&gt;&lt;/li&gt;&lt;/ul&gt;&lt;/div&gt;&lt;/div&gt;&lt;/div&gt;&lt;/div&gt;&lt;div class=&quot;flex justify-start&quot;&gt;&lt;div class=&quot;touch:-me-2 touch:-ms-3.5 -ms-2.5 -me-1 flex items-center p-1 select-none -mt-1 duration-[1.5s] focus-within:transition-none hover:transition-none pointer-events-none [mask-image:linear-gradient(to_right,black_33%,transparent_66%)] [mask-size:300%_100%] [mask-position:100%_0%] motion-safe:transition-[mask-position] group-hover/turn-messages:pointer-events-auto group-hover/turn-messages:[mask-position:0_0] group-focus-within/turn-messages:pointer-events-auto group-focus-within/turn-messages:[mask-position:0_0] has-data-[state=open]:pointer-events-auto has-data-[state=open]:[mask-position:0_0]&quot;&gt;&lt;button data-state=&quot;closed&quot; data-testid=&quot;copy-turn-action-button&quot; aria-selected=&quot;false&quot; aria-label=&quot;Copy&quot; class=&quot;text-token-text-secondary hover:bg-token-bg-secondary rounded-lg&quot;&gt;&lt;span class=&quot;touch:w-[38px] flex h-[30px] w-[30px] items-center justify-center&quot;&gt;&lt;svg class=&quot;icon-md-heavy&quot; xmlns=&quot;http://www.w3.org/2000/svg&quot; fill=&quot;none&quot; viewBox=&quot;0 0 24 24&quot; height=&quot;24&quot; width=&quot;24&quot;&gt;&lt;path fill=&quot;currentColor&quot; d=&quot;M7 5C7 3.34315 8.34315 2 10 2H19C20.6569 2 22 3.34315 22 5V14C22 15.6569 20.6569 17 19 17H17V19C17 20.6569 15.6569 22 14 22H5C3.34315 22 2 20.6569 2 19V10C2 8.34315 3.34315 7 5 7H7V5ZM9 7H14C15.6569 7 17 8.34315 17 10V15H19C19.5523 15 20 14.5523 20 14V5C20 4.44772 19.5523 4 19 4H10C9.44772 4 9 4.44772 9 5V7ZM5 9C4.44772 9 4 9.44772 4 10V19C4 19.5523 4.44772 20 5 20H14C14.5523 20 15 19.5523 15 19V10C15 9.44772 14.5523 9 14 9H5Z&quot; clip-rule=&quot;evenodd&quot; fill-rule=&quot;evenodd&quot;&gt;&lt;/path&gt;&lt;/svg&gt;&lt;/span&gt;&lt;/button&gt;&lt;button data-state=&quot;closed&quot; data-testid=&quot;good-response-turn-action-button&quot; aria-selected=&quot;false&quot; aria-label=&quot;Good response&quot; class=&quot;text-token-text-secondary hover:bg-token-bg-secondary rounded-lg&quot;&gt;&lt;span class=&quot;touch:w-[38px] flex h-[30px] w-[30px] items-center justify-center&quot;&gt;&lt;svg class=&quot;icon-md-heavy&quot; xmlns=&quot;http://www.w3.org/2000/svg&quot; fill=&quot;none&quot; viewBox=&quot;0 0 24 24&quot; height=&quot;24&quot; width=&quot;24&quot;&gt;&lt;path fill=&quot;currentColor&quot; d=&quot;M12.1318 2.50389C12.3321 2.15338 12.7235 1.95768 13.124 2.00775L13.5778 2.06447C16.0449 2.37286 17.636 4.83353 16.9048 7.20993L16.354 8.99999H17.0722C19.7097 8.99999 21.6253 11.5079 20.9313 14.0525L19.5677 19.0525C19.0931 20.7927 17.5124 22 15.7086 22H6C4.34315 22 3 20.6568 3 19V12C3 10.3431 4.34315 8.99999 6 8.99999H8C8.25952 8.99999 8.49914 8.86094 8.6279 8.63561L12.1318 2.50389ZM10 20H15.7086C16.6105 20 17.4008 19.3964 17.6381 18.5262L19.0018 13.5262C19.3488 12.2539 18.391 11 17.0722 11H15C14.6827 11 14.3841 10.8494 14.1956 10.5941C14.0071 10.3388 13.9509 10.0092 14.0442 9.70591L14.9932 6.62175C15.3384 5.49984 14.6484 4.34036 13.5319 4.08468L10.3644 9.62789C10.0522 10.1742 9.56691 10.5859 9 10.8098V19C9 19.5523 9.44772 20 10 20ZM7 11V19C7 19.3506 7.06015 19.6872 7.17071 20H6C5.44772 20 5 19.5523 5 19V12C5 11.4477 5.44772 11 6 11H7Z&quot; clip-rule=&quot;evenodd&quot; fill-rule=&quot;evenodd&quot;&gt;&lt;/path&gt;&lt;/svg&gt;&lt;/span&gt;&lt;/button&gt;&lt;button data-state=&quot;closed&quot; data-testid=&quot;bad-response-turn-action-button&quot; aria-selected=&quot;false&quot; aria-label=&quot;Bad response&quot; class=&quot;text-token-text-secondary hover:bg-token-bg-secondary rounded-lg&quot;&gt;&lt;span class=&quot;touch:w-[38px] flex h-[30px] w-[30px] items-center justify-center&quot;&gt;&lt;svg class=&quot;icon-md-heavy&quot; xmlns=&quot;http://www.w3.org/2000/svg&quot; fill=&quot;none&quot; viewBox=&quot;0 0 24 24&quot; height=&quot;24&quot; width=&quot;24&quot;&gt;&lt;path fill=&quot;currentColor&quot; d=&quot;M11.8727 21.4961C11.6725 21.8466 11.2811 22.0423 10.8805 21.9922L10.4267 21.9355C7.95958 21.6271 6.36855 19.1665 7.09975 16.7901L7.65054 15H6.93226C4.29476 15 2.37923 12.4921 3.0732 9.94753L4.43684 4.94753C4.91145 3.20728 6.49209 2 8.29589 2H18.0045C19.6614 2 21.0045 3.34315 21.0045 5V12C21.0045 13.6569 19.6614 15 18.0045 15H16.0045C15.745 15 15.5054 15.1391 15.3766 15.3644L11.8727 21.4961ZM14.0045 4H8.29589C7.39399 4 6.60367 4.60364 6.36637 5.47376L5.00273 10.4738C4.65574 11.746 5.61351 13 6.93226 13H9.00451C9.32185 13 9.62036 13.1506 9.8089 13.4059C9.99743 13.6612 10.0536 13.9908 9.96028 14.2941L9.01131 17.3782C8.6661 18.5002 9.35608 19.6596 10.4726 19.9153L13.6401 14.3721C13.9523 13.8258 14.4376 13.4141 15.0045 13.1902V5C15.0045 4.44772 14.5568 4 14.0045 4ZM17.0045 13V5C17.0045 4.64937 16.9444 4.31278 16.8338 4H18.0045C18.5568 4 19.0045 4.44772 19.0045 5V12C19.0045 12.5523 18.5568 13 18.0045 13H17.0045Z&quot; clip-rule=&quot;evenodd&quot; fill-rule=&quot;evenodd&quot;&gt;&lt;/path&gt;&lt;/svg&gt;&lt;/span&gt;&lt;/button&gt;&lt;button data-state=&quot;closed&quot; aria-selected=&quot;false&quot; aria-label=&quot;Edit in canvas&quot; class=&quot;text-token-text-secondary hover:bg-token-bg-secondary rounded-lg&quot;&gt;&lt;span class=&quot;touch:w-[38px] flex h-[30px] w-[30px] items-center justify-center&quot;&gt;&lt;svg class=&quot;icon-md&quot; xmlns=&quot;http://www.w3.org/2000/svg&quot; fill=&quot;none&quot; viewBox=&quot;0 0 24 24&quot; height=&quot;24&quot; width=&quot;24&quot;&gt;&lt;path stroke-linejoin=&quot;round&quot; stroke-linecap=&quot;round&quot; stroke=&quot;currentColor&quot; fill=&quot;currentColor&quot; d=&quot;M2.5 5.5C4.3 5.2 5.2 4 5.5 2.5C5.8 4 6.7 5.2 8.5 5.5C6.7 5.8 5.8 7 5.5 8.5C5.2 7 4.3 5.8 2.5 5.5Z&quot;&gt;&lt;/path&gt;&lt;path stroke-linejoin=&quot;round&quot; stroke-linecap=&quot;round&quot; stroke-width=&quot;2&quot; stroke=&quot;currentColor&quot; d=&quot;M5.66282 16.5231L5.18413 19.3952C5.12203 19.7678 5.09098 19.9541 5.14876 20.0888C5.19933 20.2067 5.29328 20.3007 5.41118 20.3512C5.54589 20.409 5.73218 20.378 6.10476 20.3159L8.97693 19.8372C9.72813 19.712 10.1037 19.6494 10.4542 19.521C10.7652 19.407 11.0608 19.2549 11.3343 19.068C11.6425 18.8575 11.9118 18.5882 12.4503 18.0497L20 10.5C21.3807 9.11929 21.3807 6.88071 20 5.5C18.6193 4.11929 16.3807 4.11929 15 5.5L7.45026 13.0497C6.91175 13.5882 6.6425 13.8575 6.43197 14.1657C6.24513 14.4392 6.09299 14.7348 5.97903 15.0458C5.85062 15.3963 5.78802 15.7719 5.66282 16.5231Z&quot;&gt;&lt;/path&gt;&lt;path stroke-linejoin=&quot;round&quot; stroke-linecap=&quot;round&quot; stroke-width=&quot;2&quot; stroke=&quot;currentColor&quot; d=&quot;M14.5 7L18.5 11&quot;&gt;&lt;/path&gt;&lt;/svg&gt;&lt;/span&gt;&lt;/button&gt;&lt;span class=&quot;hidden&quot;&gt;&lt;/span&gt;&lt;span data-state=&quot;closed&quot; class=&quot;&quot;&gt;&lt;button class=&quot;cursor-pointer text-token-text-secondary hover:bg-token-bg-secondary touch:px-2.5 h-[30px] rounded-md px-1.5&quot; data-state=&quot;closed&quot; aria-expanded=&quot;false&quot; aria-haspopup=&quot;menu&quot; id=&quot;radix-«r1h4»&quot; type=&quot;button&quot;&gt;&lt;div class=&quot;flex items-center&quot;&gt;&lt;svg class=&quot;icon-md&quot; xmlns=&quot;http://www.w3.org/2000/svg&quot; fill=&quot;none&quot; viewBox=&quot;0 0 24 24&quot; height=&quot;24&quot; width=&quot;24&quot;&gt;&lt;path fill=&quot;currentColor&quot; d=&quot;M3.06957 10.8763C3.62331 6.43564 7.40967 3 12 3C14.2824 3 16.4028 3.85067 18.0118 5.25439V4C18.0118 3.44772 18.4595 3 19.0118 3C19.5641 3 20.0118 3.44772 20.0118 4V8C20.0118 8.55228 19.5641 9 19.0118 9H15C14.4477 9 14 8.55228 14 8C14 7.44772 14.4477 7 15 7H16.9571C15.6757 5.76379 13.9101 5 12 5C8.43108 5 5.48466 7.67174 5.0542 11.1237C4.98586 11.6718 4.48619 12.0607 3.93815 11.9923C3.39011 11.924 3.00123 11.4243 3.06957 10.8763ZM20.0618 12.0077C20.6099 12.076 20.9988 12.5757 20.9304 13.1237C20.3767 17.5644 16.5903 21 12 21C9.72322 21 7.60762 20.1535 5.99999 18.7559V20C5.99999 20.5523 5.55228 21 4.99999 21C4.44771 21 3.99999 20.5523 3.99999 20V16C3.99999 15.4477 4.44771 15 4.99999 15H8.99999C9.55228 15 9.99999 15.4477 9.99999 16C9.99999 16.5523 9.55228 17 8.99999 17H7.04285C8.32433 18.2362 10.0899 19 12 19C15.5689 19 18.5153 16.3283 18.9458 12.8763C19.0141 12.3282 19.5138 11.9393 20.0618 12.0077Z&quot;&gt;&lt;/path&gt;&lt;/svg&gt;&lt;svg class=&quot;icon-sm&quot; xmlns=&quot;http://www.w3.org/2000/svg&quot; fill=&quot;none&quot; viewBox=&quot;0 0 24 24&quot; height=&quot;24&quot; width=&quot;24&quot;&gt;&lt;path fill=&quot;currentColor&quot; d=&quot;M5.29289 9.29289C5.68342 8.90237 6.31658 8.90237 6.70711 9.29289L12 14.5858L17.2929 9.29289C17.6834 8.90237 18.3166 8.90237 18.7071 9.29289C19.0976 9.68342 19.0976 10.3166 18.7071 10.7071L12.7071 16.7071C12.5196 16.8946 12.2652 17 12 17C11.7348 17 11.4804 16.8946 11.2929 16.7071L5.29289 10.7071C4.90237 10.3166 4.90237 9.68342 5.29289 9.29289Z&quot; clip-rule=&quot;evenodd&quot; fill-rule=&quot;evenodd&quot;&gt;&lt;/path&gt;&lt;/svg&gt;&lt;/div&gt;&lt;/button&gt;&lt;/span&gt;&lt;/div&gt;&lt;/div&gt;&lt;div class=&quot;mt-3 w-full empty:hidden&quot;&gt;&lt;div class=&quot;text-center&quot;&gt;&lt;/div&gt;&lt;/div&gt;&lt;/div&gt;&lt;div class=&quot;absolute&quot;&gt;&lt;span data-state=&quot;closed&quot; class=&quot;&quot;&gt;&lt;button class=&quot;btn relative btn-secondary btn-small shadow-lg&quot;&gt;&lt;div class=&quot;flex items-center justify-center&quot;&gt;&lt;svg class=&quot;icon-md&quot; xmlns=&quot;http://www.w3.org/2000/svg&quot; fill=&quot;none&quot; viewBox=&quot;0 0 24 24&quot; height=&quot;24&quot; width=&quot;24&quot;&gt;&lt;path fill=&quot;currentColor&quot; d=&quot;M7.5 13.25C7.98703 13.25 8.45082 13.1505 8.87217 12.9708C8.46129 14.0478 7.62459 15.5792 6.35846 15.76C5.81173 15.8382 5.43183 16.3447 5.50993 16.8914C5.58804 17.4382 6.09457 17.8181 6.6413 17.7399C9.19413 17.3753 10.7256 14.4711 11.169 12.1909C11.4118 10.942 11.3856 9.58095 10.8491 8.44726C10.2424 7.16517 8.92256 6.24402 7.48508 6.25001C5.55895 6.25805 4 7.82196 4 9.74998C4 11.683 5.567 13.25 7.5 13.25Z&quot;&gt;&lt;/path&gt;&lt;path fill=&quot;currentColor&quot; d=&quot;M16.18 13.25C16.667 13.25 17.1308 13.1505 17.5522 12.9708C17.1413 14.0478 16.3046 15.5792 15.0385 15.76C14.4917 15.8382 14.1118 16.3447 14.1899 16.8914C14.268 17.4382 14.7746 17.8181 15.3213 17.7399C17.8741 17.3753 19.4056 14.4711 19.849 12.1909C20.0918 10.942 20.0656 9.58095 19.5291 8.44726C18.9224 7.16517 17.6026 6.24402 16.1651 6.25001C14.2389 6.25805 12.68 7.82196 12.68 9.74998C12.68 11.683 14.247 13.25 16.18 13.25Z&quot;&gt;&lt;/path&gt;&lt;/svg&gt;&lt;/div&gt;&lt;/button&gt;&lt;/span&gt;&lt;/div&gt;&lt;/div&gt;&lt;/div&gt;&lt;/div&gt;&lt;/article&gt;&lt;div class=&quot;pointer-events-none h-px w-px&quot; data-edge=&quot;true&quot; aria-hidden=&quot;true&quot;&gt;&lt;/div&gt;&lt;/ul&gt;&lt;/h1&gt;" style="text;html=1;whiteSpace=wrap;overflow=hidden;rounded=1;fillColor=#f5f5f5;fontColor=#333333;strokeColor=#666666;arcSize=8;spacingLeft=30;spacingBottom=30;container=1;spacingRight=30;" vertex="1" parent="W1zuWMnPYM_l5iYGmvtb-1">
          <mxGeometry x="420" y="180" width="700" height="800" as="geometry" />
        </mxCell>
        <mxCell id="W1zuWMnPYM_l5iYGmvtb-4" value="user access" parent="0" />
        <mxCell id="W1zuWMnPYM_l5iYGmvtb-5" style="edgeStyle=orthogonalEdgeStyle;rounded=0;orthogonalLoop=1;jettySize=auto;html=1;" edge="1" parent="W1zuWMnPYM_l5iYGmvtb-4" source="W1zuWMnPYM_l5iYGmvtb-6" target="W1zuWMnPYM_l5iYGmvtb-9">
          <mxGeometry relative="1" as="geometry" />
        </mxCell>
        <mxCell id="W1zuWMnPYM_l5iYGmvtb-6" value="" style="sketch=0;outlineConnect=0;fontColor=#232F3E;gradientColor=none;fillColor=#232F3D;strokeColor=none;dashed=0;verticalLabelPosition=bottom;verticalAlign=top;align=center;html=1;fontSize=12;fontStyle=0;aspect=fixed;pointerEvents=1;shape=mxgraph.aws4.user;" vertex="1" parent="W1zuWMnPYM_l5iYGmvtb-4">
          <mxGeometry x="-680" y="461" width="78" height="78" as="geometry" />
        </mxCell>
        <mxCell id="W1zuWMnPYM_l5iYGmvtb-7" style="edgeStyle=orthogonalEdgeStyle;rounded=0;orthogonalLoop=1;jettySize=auto;html=1;" edge="1" parent="W1zuWMnPYM_l5iYGmvtb-4" source="W1zuWMnPYM_l5iYGmvtb-9">
          <mxGeometry relative="1" as="geometry">
            <Array as="points">
              <mxPoint x="-320" y="500" />
              <mxPoint x="-320" y="650" />
            </Array>
            <mxPoint x="-170" y="650" as="targetPoint" />
          </mxGeometry>
        </mxCell>
        <mxCell id="W1zuWMnPYM_l5iYGmvtb-8" value="Connection NOT possible &lt;br&gt;by default" style="edgeLabel;html=1;align=center;verticalAlign=middle;resizable=0;points=[];fontStyle=1;fontSize=15;" vertex="1" connectable="0" parent="W1zuWMnPYM_l5iYGmvtb-7">
          <mxGeometry x="-0.1844" y="1" relative="1" as="geometry">
            <mxPoint as="offset" />
          </mxGeometry>
        </mxCell>
        <mxCell id="W1zuWMnPYM_l5iYGmvtb-9" value="&lt;b&gt;Internet&lt;/b&gt;" style="sketch=0;outlineConnect=0;fontColor=#232F3E;gradientColor=none;fillColor=#232F3D;strokeColor=none;dashed=0;verticalLabelPosition=bottom;verticalAlign=top;align=center;html=1;fontSize=12;fontStyle=0;aspect=fixed;pointerEvents=1;shape=mxgraph.aws4.internet_alt1;" vertex="1" parent="W1zuWMnPYM_l5iYGmvtb-4">
          <mxGeometry x="-460" y="476" width="78" height="48" as="geometry" />
        </mxCell>
        <mxCell id="W1zuWMnPYM_l5iYGmvtb-10" style="edgeStyle=orthogonalEdgeStyle;rounded=0;orthogonalLoop=1;jettySize=auto;html=1;entryX=0;entryY=0.5;entryDx=0;entryDy=0;entryPerimeter=0;" edge="1" parent="W1zuWMnPYM_l5iYGmvtb-4" source="W1zuWMnPYM_l5iYGmvtb-9">
          <mxGeometry relative="1" as="geometry">
            <Array as="points">
              <mxPoint x="-320" y="500" />
              <mxPoint x="-320" y="250" />
            </Array>
            <mxPoint x="-130" y="250" as="targetPoint" />
          </mxGeometry>
        </mxCell>
        <mxCell id="W1zuWMnPYM_l5iYGmvtb-11" value="&lt;b&gt;connection possible, but &lt;br&gt;protected by AWS IAM&lt;/b&gt;" style="edgeLabel;html=1;align=center;verticalAlign=middle;resizable=0;points=[];fontSize=14;" vertex="1" connectable="0" parent="W1zuWMnPYM_l5iYGmvtb-10">
          <mxGeometry x="-0.2004" y="6" relative="1" as="geometry">
            <mxPoint x="-14" y="1" as="offset" />
          </mxGeometry>
        </mxCell>
      </root>
    </mxGraphModel>
  </diagram>
  <diagram name="VPC design" id="95r7kJ0MUqWHF0ss9m-f">
    <mxGraphModel dx="3900" dy="1420" grid="1" gridSize="10" guides="1" tooltips="1" connect="1" arrows="1" fold="1" page="1" pageScale="1" pageWidth="827" pageHeight="1169" math="0" shadow="0">
      <root>
        <mxCell id="6kbcMm_zYJfw31hf7yNc-0" />
        <mxCell id="6kbcMm_zYJfw31hf7yNc-1" value="vpc design" style="locked=1;" parent="6kbcMm_zYJfw31hf7yNc-0" />
        <mxCell id="6kbcMm_zYJfw31hf7yNc-2" value="&lt;font style=&quot;font-size: 19px;&quot;&gt;AWS Account&lt;/font&gt;" style="points=[[0,0],[0.25,0],[0.5,0],[0.75,0],[1,0],[1,0.25],[1,0.5],[1,0.75],[1,1],[0.75,1],[0.5,1],[0.25,1],[0,1],[0,0.75],[0,0.5],[0,0.25]];outlineConnect=0;gradientColor=none;html=1;whiteSpace=wrap;fontSize=12;fontStyle=0;container=1;pointerEvents=0;collapsible=0;recursiveResize=0;shape=mxgraph.aws4.group;grIcon=mxgraph.aws4.group_account;strokeColor=#CD2264;fillColor=none;verticalAlign=top;align=left;spacingLeft=30;fontColor=#CD2264;dashed=0;" parent="6kbcMm_zYJfw31hf7yNc-1" vertex="1">
          <mxGeometry x="-250" y="180" width="660" height="770" as="geometry" />
        </mxCell>
        <mxCell id="6kbcMm_zYJfw31hf7yNc-3" value="VPC" style="sketch=0;outlineConnect=0;gradientColor=none;html=1;whiteSpace=wrap;fontSize=12;fontStyle=0;shape=mxgraph.aws4.group;grIcon=mxgraph.aws4.group_vpc;strokeColor=#879196;fillColor=none;verticalAlign=top;align=left;spacingLeft=30;fontColor=#879196;dashed=0;" parent="6kbcMm_zYJfw31hf7yNc-2" vertex="1">
          <mxGeometry x="80.5" y="50" width="409.5" height="560" as="geometry" />
        </mxCell>
        <mxCell id="TdjOEDjCtDGNR1J-fkpf-8" value="Public subnet" style="points=[[0,0],[0.25,0],[0.5,0],[0.75,0],[1,0],[1,0.25],[1,0.5],[1,0.75],[1,1],[0.75,1],[0.5,1],[0.25,1],[0,1],[0,0.75],[0,0.5],[0,0.25]];outlineConnect=0;gradientColor=none;html=1;whiteSpace=wrap;fontSize=12;fontStyle=0;container=1;pointerEvents=0;collapsible=0;recursiveResize=0;shape=mxgraph.aws4.group;grIcon=mxgraph.aws4.group_security_group;grStroke=0;strokeColor=#7AA116;fillColor=#F2F6E8;verticalAlign=top;align=left;spacingLeft=30;fontColor=#248814;dashed=0;" parent="6kbcMm_zYJfw31hf7yNc-2" vertex="1">
          <mxGeometry x="216" y="80" width="264" height="150" as="geometry" />
        </mxCell>
        <mxCell id="TdjOEDjCtDGNR1J-fkpf-9" value="Private subnet (with internet access)" style="points=[[0,0],[0.25,0],[0.5,0],[0.75,0],[1,0],[1,0.25],[1,0.5],[1,0.75],[1,1],[0.75,1],[0.5,1],[0.25,1],[0,1],[0,0.75],[0,0.5],[0,0.25]];outlineConnect=0;gradientColor=none;html=1;whiteSpace=wrap;fontSize=12;fontStyle=0;container=1;pointerEvents=0;collapsible=0;recursiveResize=0;shape=mxgraph.aws4.group;grIcon=mxgraph.aws4.group_security_group;grStroke=0;strokeColor=#00A4A6;fillColor=#E6F6F7;verticalAlign=top;align=left;spacingLeft=30;fontColor=#147EBA;dashed=0;" parent="6kbcMm_zYJfw31hf7yNc-2" vertex="1">
          <mxGeometry x="216" y="240" width="264" height="140" as="geometry" />
        </mxCell>
        <mxCell id="TdjOEDjCtDGNR1J-fkpf-18" value="Private subnet (without internet access)" style="points=[[0,0],[0.25,0],[0.5,0],[0.75,0],[1,0],[1,0.25],[1,0.5],[1,0.75],[1,1],[0.75,1],[0.5,1],[0.25,1],[0,1],[0,0.75],[0,0.5],[0,0.25]];outlineConnect=0;gradientColor=none;html=1;whiteSpace=wrap;fontSize=12;fontStyle=0;container=1;pointerEvents=0;collapsible=0;recursiveResize=0;shape=mxgraph.aws4.group;grIcon=mxgraph.aws4.group_security_group;grStroke=0;strokeColor=#00A4A6;fillColor=#E6F6F7;verticalAlign=top;align=left;spacingLeft=30;fontColor=#147EBA;dashed=0;" parent="6kbcMm_zYJfw31hf7yNc-2" vertex="1">
          <mxGeometry x="216" y="400" width="254" height="180" as="geometry" />
        </mxCell>
        <mxCell id="ZCuwWBE4Jfgmy3PiZ6JK-0" value="application example" style="locked=1;" parent="6kbcMm_zYJfw31hf7yNc-0" />
        <mxCell id="ZCuwWBE4Jfgmy3PiZ6JK-5" value="AWS Application &lt;br&gt;Load balancer" style="sketch=0;outlineConnect=0;fontColor=#232F3E;gradientColor=none;fillColor=#8C4FFF;strokeColor=none;dashed=0;verticalLabelPosition=bottom;verticalAlign=top;align=center;html=1;fontSize=12;fontStyle=0;aspect=fixed;pointerEvents=1;shape=mxgraph.aws4.application_load_balancer;" parent="ZCuwWBE4Jfgmy3PiZ6JK-0" vertex="1">
          <mxGeometry x="-3" y="301" width="78" height="78" as="geometry" />
        </mxCell>
        <mxCell id="ZCuwWBE4Jfgmy3PiZ6JK-6" value="NAT Gateway" style="sketch=0;outlineConnect=0;fontColor=#232F3E;gradientColor=none;fillColor=#8C4FFF;strokeColor=none;dashed=0;verticalLabelPosition=bottom;verticalAlign=top;align=center;html=1;fontSize=12;fontStyle=0;aspect=fixed;pointerEvents=1;shape=mxgraph.aws4.nat_gateway;" parent="ZCuwWBE4Jfgmy3PiZ6JK-0" vertex="1">
          <mxGeometry x="130" y="301" width="78" height="78" as="geometry" />
        </mxCell>
        <mxCell id="ZCuwWBE4Jfgmy3PiZ6JK-7" value="EC2 Instance" style="sketch=0;points=[[0,0,0],[0.25,0,0],[0.5,0,0],[0.75,0,0],[1,0,0],[0,1,0],[0.25,1,0],[0.5,1,0],[0.75,1,0],[1,1,0],[0,0.25,0],[0,0.5,0],[0,0.75,0],[1,0.25,0],[1,0.5,0],[1,0.75,0]];outlineConnect=0;fontColor=#232F3E;fillColor=#ED7100;strokeColor=#ffffff;dashed=0;verticalLabelPosition=bottom;verticalAlign=top;align=center;html=1;fontSize=12;fontStyle=0;aspect=fixed;shape=mxgraph.aws4.resourceIcon;resIcon=mxgraph.aws4.ec2;" parent="ZCuwWBE4Jfgmy3PiZ6JK-0" vertex="1">
          <mxGeometry x="-3.75" y="466" width="78" height="78" as="geometry" />
        </mxCell>
        <mxCell id="ZCuwWBE4Jfgmy3PiZ6JK-8" value="AWS Rds&lt;br&gt;database" style="sketch=0;points=[[0,0,0],[0.25,0,0],[0.5,0,0],[0.75,0,0],[1,0,0],[0,1,0],[0.25,1,0],[0.5,1,0],[0.75,1,0],[1,1,0],[0,0.25,0],[0,0.5,0],[0,0.75,0],[1,0.25,0],[1,0.5,0],[1,0.75,0]];outlineConnect=0;fontColor=#232F3E;fillColor=#C925D1;strokeColor=#ffffff;dashed=0;verticalLabelPosition=bottom;verticalAlign=top;align=center;html=1;fontSize=12;fontStyle=0;aspect=fixed;shape=mxgraph.aws4.resourceIcon;resIcon=mxgraph.aws4.rds;" parent="ZCuwWBE4Jfgmy3PiZ6JK-0" vertex="1">
          <mxGeometry x="-3.75" y="655" width="78" height="78" as="geometry" />
        </mxCell>
        <mxCell id="ZCuwWBE4Jfgmy3PiZ6JK-9" value="AWS DynamoDB Table&lt;br&gt;(on public server)" style="sketch=0;points=[[0,0,0],[0.25,0,0],[0.5,0,0],[0.75,0,0],[1,0,0],[0,1,0],[0.25,1,0],[0.5,1,0],[0.75,1,0],[1,1,0],[0,0.25,0],[0,0.5,0],[0,0.75,0],[1,0.25,0],[1,0.5,0],[1,0.75,0]];outlineConnect=0;fontColor=#232F3E;fillColor=#C925D1;strokeColor=#ffffff;dashed=0;verticalLabelPosition=bottom;verticalAlign=top;align=center;html=1;fontSize=12;fontStyle=0;aspect=fixed;shape=mxgraph.aws4.resourceIcon;resIcon=mxgraph.aws4.dynamodb;" parent="ZCuwWBE4Jfgmy3PiZ6JK-0" vertex="1">
          <mxGeometry x="290" y="305" width="78" height="78" as="geometry" />
        </mxCell>
        <mxCell id="ZCuwWBE4Jfgmy3PiZ6JK-10" style="edgeStyle=orthogonalEdgeStyle;rounded=0;orthogonalLoop=1;jettySize=auto;html=1;strokeWidth=4;fillColor=#dae8fc;strokeColor=#6c8ebf;" parent="ZCuwWBE4Jfgmy3PiZ6JK-0" source="ZCuwWBE4Jfgmy3PiZ6JK-5" target="ZCuwWBE4Jfgmy3PiZ6JK-7" edge="1">
          <mxGeometry relative="1" as="geometry" />
        </mxCell>
        <mxCell id="ZCuwWBE4Jfgmy3PiZ6JK-11" style="edgeStyle=orthogonalEdgeStyle;rounded=0;orthogonalLoop=1;jettySize=auto;html=1;strokeWidth=4;fillColor=#dae8fc;strokeColor=#6c8ebf;" parent="ZCuwWBE4Jfgmy3PiZ6JK-0" source="ZCuwWBE4Jfgmy3PiZ6JK-7" target="ZCuwWBE4Jfgmy3PiZ6JK-8" edge="1">
          <mxGeometry relative="1" as="geometry" />
        </mxCell>
        <mxCell id="ZCuwWBE4Jfgmy3PiZ6JK-12" style="edgeStyle=orthogonalEdgeStyle;rounded=0;orthogonalLoop=1;jettySize=auto;html=1;fillColor=#f8cecc;strokeColor=#b85450;strokeWidth=4;" parent="ZCuwWBE4Jfgmy3PiZ6JK-0" source="ZCuwWBE4Jfgmy3PiZ6JK-7" target="ZCuwWBE4Jfgmy3PiZ6JK-6" edge="1">
          <mxGeometry relative="1" as="geometry" />
        </mxCell>
        <mxCell id="ZCuwWBE4Jfgmy3PiZ6JK-13" style="edgeStyle=orthogonalEdgeStyle;rounded=0;orthogonalLoop=1;jettySize=auto;html=1;fillColor=#dae8fc;strokeColor=#6c8ebf;strokeWidth=4;" parent="ZCuwWBE4Jfgmy3PiZ6JK-0" source="ZCuwWBE4Jfgmy3PiZ6JK-14" target="ZCuwWBE4Jfgmy3PiZ6JK-18" edge="1">
          <mxGeometry relative="1" as="geometry" />
        </mxCell>
        <mxCell id="ZCuwWBE4Jfgmy3PiZ6JK-14" value="" style="sketch=0;outlineConnect=0;fontColor=#232F3E;gradientColor=none;fillColor=#232F3D;strokeColor=none;dashed=0;verticalLabelPosition=bottom;verticalAlign=top;align=center;html=1;fontSize=12;fontStyle=0;aspect=fixed;pointerEvents=1;shape=mxgraph.aws4.user;" parent="ZCuwWBE4Jfgmy3PiZ6JK-0" vertex="1">
          <mxGeometry x="-170" y="100" width="78" height="78" as="geometry" />
        </mxCell>
        <mxCell id="ZCuwWBE4Jfgmy3PiZ6JK-15" style="edgeStyle=orthogonalEdgeStyle;rounded=0;orthogonalLoop=1;jettySize=auto;html=1;fillColor=#dae8fc;strokeColor=#6c8ebf;strokeWidth=4;" parent="ZCuwWBE4Jfgmy3PiZ6JK-0" source="ZCuwWBE4Jfgmy3PiZ6JK-18" target="ZCuwWBE4Jfgmy3PiZ6JK-5" edge="1">
          <mxGeometry relative="1" as="geometry">
            <mxPoint x="-273.9185091598231" y="519" as="sourcePoint" />
            <Array as="points">
              <mxPoint x="100" y="225" />
              <mxPoint x="36" y="225" />
            </Array>
          </mxGeometry>
        </mxCell>
        <mxCell id="ZCuwWBE4Jfgmy3PiZ6JK-16" style="edgeStyle=orthogonalEdgeStyle;rounded=0;orthogonalLoop=1;jettySize=auto;html=1;fillColor=#f8cecc;strokeColor=#b85450;strokeWidth=4;" parent="ZCuwWBE4Jfgmy3PiZ6JK-0" source="ZCuwWBE4Jfgmy3PiZ6JK-6" target="ZCuwWBE4Jfgmy3PiZ6JK-18" edge="1">
          <mxGeometry relative="1" as="geometry">
            <Array as="points">
              <mxPoint x="169" y="225" />
              <mxPoint x="140" y="225" />
            </Array>
          </mxGeometry>
        </mxCell>
        <mxCell id="ZCuwWBE4Jfgmy3PiZ6JK-17" style="edgeStyle=orthogonalEdgeStyle;rounded=0;orthogonalLoop=1;jettySize=auto;html=1;fillColor=#f8cecc;strokeColor=#b85450;strokeWidth=4;" parent="ZCuwWBE4Jfgmy3PiZ6JK-0" source="ZCuwWBE4Jfgmy3PiZ6JK-18" target="ZCuwWBE4Jfgmy3PiZ6JK-9" edge="1">
          <mxGeometry relative="1" as="geometry" />
        </mxCell>
        <mxCell id="ZCuwWBE4Jfgmy3PiZ6JK-18" value="&lt;font style=&quot;font-size: 20px; background-color: light-dark(#ffffff, var(--ge-dark-color, #121212));&quot;&gt;Internet&lt;/font&gt;" style="sketch=0;outlineConnect=0;fontColor=#232F3E;gradientColor=none;fillColor=#232F3D;strokeColor=none;dashed=0;verticalLabelPosition=top;verticalAlign=bottom;align=center;html=1;fontSize=12;fontStyle=0;aspect=fixed;pointerEvents=1;shape=mxgraph.aws4.internet_alt1;labelPosition=center;" parent="ZCuwWBE4Jfgmy3PiZ6JK-0" vertex="1">
          <mxGeometry x="80" y="115" width="78" height="48" as="geometry" />
        </mxCell>
        <mxCell id="ZCuwWBE4Jfgmy3PiZ6JK-1" value="textbox" style="" parent="6kbcMm_zYJfw31hf7yNc-0" />
        <mxCell id="ZCuwWBE4Jfgmy3PiZ6JK-3" value="&lt;div&gt;&lt;p style=&quot;font-size: 24px; font-weight: 700; background-color: transparent; color: light-dark(rgb(51, 51, 51), rgb(193, 193, 193)); display: inline !important;&quot; data-end=&quot;178&quot; data-start=&quot;140&quot;&gt;&lt;strong data-end=&quot;178&quot; data-start=&quot;140&quot;&gt;&lt;br&gt;&lt;/strong&gt;&lt;/p&gt;&lt;/div&gt;&lt;p style=&quot;font-size: 24px; font-weight: 700; background-color: transparent; color: light-dark(rgb(51, 51, 51), rgb(193, 193, 193)); display: inline !important;&quot; data-end=&quot;178&quot; data-start=&quot;140&quot;&gt;&lt;strong data-end=&quot;178&quot; data-start=&quot;140&quot;&gt;AWS Networking – VPC Design (1)&lt;/strong&gt;&lt;/p&gt;&lt;p style=&quot;font-size: 24px; font-weight: 700; background-color: transparent; color: light-dark(rgb(51, 51, 51), rgb(193, 193, 193));&quot; data-end=&quot;250&quot; data-start=&quot;180&quot;&gt;When designing a basic VPC, think about&amp;nbsp;&lt;strong data-end=&quot;249&quot; data-start=&quot;220&quot;&gt;two directions of traffic&lt;/strong&gt;:&lt;/p&gt;&lt;ol style=&quot;font-size: 24px; font-weight: 700; background-color: transparent; color: light-dark(rgb(51, 51, 51), rgb(193, 193, 193));&quot; data-end=&quot;572&quot; data-start=&quot;252&quot;&gt;&lt;li data-end=&quot;345&quot; data-start=&quot;252&quot;&gt;&lt;p data-end=&quot;345&quot; data-start=&quot;255&quot;&gt;&lt;strong data-end=&quot;283&quot; data-start=&quot;255&quot;&gt;Users accessing your app (blue lines)&lt;/strong&gt;&lt;br&gt;→ Your web app needs to be&amp;nbsp;&lt;strong data-end=&quot;344&quot; data-start=&quot;313&quot;&gt;reachable from the internet&lt;/strong&gt;.&lt;/p&gt;&lt;/li&gt;&lt;li data-end=&quot;572&quot; data-start=&quot;347&quot;&gt;&lt;p data-end=&quot;572&quot; data-start=&quot;350&quot;&gt;&lt;strong data-end=&quot;384&quot; data-start=&quot;350&quot;&gt;Your app reaching the internet (red lines)&lt;/strong&gt;&lt;br&gt;→ Your app might need to call APIs, download updates, or access services like&amp;nbsp;&lt;strong data-end=&quot;471&quot; data-start=&quot;465&quot;&gt;S3&lt;/strong&gt;&amp;nbsp;or&amp;nbsp;&lt;strong data-end=&quot;487&quot; data-start=&quot;475&quot;&gt;DynamoDB&lt;/strong&gt;.&lt;br data-end=&quot;491&quot; data-start=&quot;488&quot;&gt;&lt;br&gt;Remember these AWS services are public — your app&amp;nbsp;&lt;strong data-end=&quot;557&quot; data-start=&quot;532&quot;&gt;needs internet access&lt;/strong&gt;&amp;nbsp;to reach them.**&lt;/p&gt;&lt;/li&gt;&lt;/ol&gt;&lt;p style=&quot;font-size: 24px; font-weight: 700; background-color: transparent; color: light-dark(rgb(51, 51, 51), rgb(193, 193, 193));&quot; data-end=&quot;606&quot; data-start=&quot;579&quot;&gt;&lt;strong data-end=&quot;606&quot; data-start=&quot;579&quot;&gt;How it’s usually set up - divide a VPC into &#39;chunks&#39; called subnets:&lt;/strong&gt;&lt;/p&gt;&lt;ul style=&quot;font-size: 24px; background-color: transparent; color: light-dark(rgb(51, 51, 51), rgb(193, 193, 193));&quot; data-end=&quot;1333&quot; data-start=&quot;1134&quot;&gt;&lt;li style=&quot;font-weight: 700;&quot; data-end=&quot;844&quot; data-start=&quot;608&quot;&gt;&lt;p data-end=&quot;844&quot; data-start=&quot;610&quot;&gt;&lt;strong data-end=&quot;627&quot; data-start=&quot;610&quot;&gt;Public Subnet&lt;/strong&gt;&lt;br&gt;Used for traffic coming from users.&lt;br&gt;For&amp;nbsp;&lt;strong data-end=&quot;704&quot; data-start=&quot;676&quot;&gt;security and performance&lt;/strong&gt;, apps usually&amp;nbsp;&lt;strong data-end=&quot;746&quot; data-start=&quot;719&quot;&gt;don’t run directly here&lt;/strong&gt;.&lt;br&gt;Instead, you place a&amp;nbsp;&lt;strong data-end=&quot;790&quot; data-start=&quot;773&quot;&gt;load balancer&lt;/strong&gt;&amp;nbsp;here, which routes traffic to your internal services.&lt;/p&gt;&lt;/li&gt;&lt;li style=&quot;font-weight: 700;&quot; data-end=&quot;961&quot; data-start=&quot;846&quot;&gt;&lt;p data-end=&quot;961&quot; data-start=&quot;848&quot;&gt;&lt;strong data-end=&quot;866&quot; data-start=&quot;848&quot;&gt;Private Subnet&lt;/strong&gt;&lt;br&gt;Not directly accessible from the outside (only via service in public subnet).&lt;br&gt;Used for app servers, databases, and background jobs.&lt;br&gt;You can make private subnets WITH internet access, OR without internet, by connecting to a NAT gateway.&lt;/p&gt;&lt;/li&gt;&lt;li style=&quot;&quot; data-end=&quot;1100&quot; data-start=&quot;963&quot;&gt;&lt;p style=&quot;&quot; data-end=&quot;1100&quot; data-start=&quot;965&quot;&gt;&lt;strong style=&quot;font-weight: 700;&quot; data-end=&quot;980&quot; data-start=&quot;965&quot;&gt;NAT Gateway&lt;/strong&gt;&lt;br data-end=&quot;983&quot; data-start=&quot;980&quot;&gt;&lt;b&gt;Placed in the public subnet.&lt;/b&gt;&lt;br data-end=&quot;1016&quot; data-start=&quot;1013&quot;&gt;&lt;b&gt;Lets resources in the private subnet reach the internet&amp;nbsp;&lt;/b&gt;&lt;span style=&quot;&quot; data-end=&quot;1099&quot; data-start=&quot;1074&quot;&gt;&lt;b&gt;without exposing them.&lt;br&gt;&lt;/b&gt;&lt;br&gt;&lt;br&gt;&lt;br&gt;**there are ways to circumvent this, but for simplicity these are not discussed.&lt;/span&gt;&lt;/p&gt;&lt;/li&gt;&lt;/ul&gt;" style="text;html=1;whiteSpace=wrap;overflow=hidden;rounded=1;fillColor=#f5f5f5;fontColor=#333333;strokeColor=#666666;arcSize=8;spacingLeft=30;spacingBottom=30;container=1;spacingRight=10;" parent="ZCuwWBE4Jfgmy3PiZ6JK-1" vertex="1">
          <mxGeometry x="-1050" width="700" height="1360" as="geometry" />
        </mxCell>
        <mxCell id="ZCuwWBE4Jfgmy3PiZ6JK-4" value="&lt;p data-end=&quot;1133&quot; data-start=&quot;1107&quot;&gt;&lt;strong data-end=&quot;1131&quot; data-start=&quot;1107&quot;&gt;&lt;font style=&quot;font-size: 24px;&quot;&gt;✅ Developer Takeaway&lt;/font&gt;&lt;/strong&gt;&lt;/p&gt;&lt;ul data-end=&quot;1333&quot; data-start=&quot;1134&quot;&gt;&lt;li data-end=&quot;1224&quot; data-start=&quot;1134&quot;&gt;&lt;p data-end=&quot;1224&quot; data-start=&quot;1136&quot;&gt;&lt;font style=&quot;font-size: 24px;&quot;&gt;&lt;strong data-end=&quot;1179&quot; data-start=&quot;1136&quot;&gt;Load balancer goes in the public subnet&lt;/strong&gt;, your app stays in the &lt;strong data-end=&quot;1221&quot; data-start=&quot;1203&quot;&gt;private subnet&lt;/strong&gt;.&lt;/font&gt;&lt;/p&gt;&lt;/li&gt;&lt;li data-end=&quot;1333&quot; data-start=&quot;1225&quot;&gt;&lt;p data-end=&quot;1333&quot; data-start=&quot;1227&quot;&gt;&lt;font style=&quot;font-size: 24px;&quot;&gt;Add a &lt;strong style=&quot;&quot; data-end=&quot;1248&quot; data-start=&quot;1233&quot;&gt;NAT Gateway&lt;/strong&gt; if your app needs to call the internet — including AWS services like S3 or DynamoDB, and connect the private subnet of your app access to the NAT gateway.&lt;/font&gt;&lt;/p&gt;&lt;/li&gt;&lt;/ul&gt;" style="text;html=1;whiteSpace=wrap;overflow=hidden;rounded=1;fillColor=#f5f5f5;fontColor=#333333;strokeColor=#666666;arcSize=8;spacingLeft=30;spacingBottom=30;container=1;" parent="ZCuwWBE4Jfgmy3PiZ6JK-1" vertex="1">
          <mxGeometry x="510" y="380" width="550" height="330" as="geometry" />
        </mxCell>
      </root>
    </mxGraphModel>
  </diagram>
  <diagram name="vpc-design-2" id="66EC1TmenMqZVAif-81G">
    <mxGraphModel dx="4274" dy="2826" grid="1" gridSize="10" guides="1" tooltips="1" connect="1" arrows="1" fold="1" page="1" pageScale="1" pageWidth="827" pageHeight="1169" math="0" shadow="0">
      <root>
        <mxCell id="IdMlChO3T7YkpccGCHXc-0" />
        <mxCell id="IdMlChO3T7YkpccGCHXc-1" style="locked=1;" parent="IdMlChO3T7YkpccGCHXc-0" />
        <mxCell id="IdMlChO3T7YkpccGCHXc-2" value="&lt;font style=&quot;font-size: 19px;&quot;&gt;AWS Account&lt;/font&gt;" style="points=[[0,0],[0.25,0],[0.5,0],[0.75,0],[1,0],[1,0.25],[1,0.5],[1,0.75],[1,1],[0.75,1],[0.5,1],[0.25,1],[0,1],[0,0.75],[0,0.5],[0,0.25]];outlineConnect=0;gradientColor=none;html=1;whiteSpace=wrap;fontSize=12;fontStyle=0;container=1;pointerEvents=0;collapsible=0;recursiveResize=0;shape=mxgraph.aws4.group;grIcon=mxgraph.aws4.group_account;strokeColor=#CD2264;fillColor=none;verticalAlign=top;align=left;spacingLeft=30;fontColor=#CD2264;dashed=0;" parent="IdMlChO3T7YkpccGCHXc-1" vertex="1">
          <mxGeometry x="-460" y="90" width="1100" height="770" as="geometry" />
        </mxCell>
        <mxCell id="IdMlChO3T7YkpccGCHXc-3" value="VPC" style="sketch=0;outlineConnect=0;gradientColor=none;html=1;whiteSpace=wrap;fontSize=12;fontStyle=0;shape=mxgraph.aws4.group;grIcon=mxgraph.aws4.group_vpc;strokeColor=#879196;fillColor=none;verticalAlign=top;align=left;spacingLeft=30;fontColor=#879196;dashed=0;" parent="IdMlChO3T7YkpccGCHXc-2" vertex="1">
          <mxGeometry x="80.5" y="40" width="879.5" height="570" as="geometry" />
        </mxCell>
        <mxCell id="IdMlChO3T7YkpccGCHXc-4" value="Public subnet AZ1" style="points=[[0,0],[0.25,0],[0.5,0],[0.75,0],[1,0],[1,0.25],[1,0.5],[1,0.75],[1,1],[0.75,1],[0.5,1],[0.25,1],[0,1],[0,0.75],[0,0.5],[0,0.25]];outlineConnect=0;gradientColor=none;html=1;whiteSpace=wrap;fontSize=12;fontStyle=0;container=1;pointerEvents=0;collapsible=0;recursiveResize=0;shape=mxgraph.aws4.group;grIcon=mxgraph.aws4.group_security_group;grStroke=0;strokeColor=#7AA116;fillColor=#F2F6E8;verticalAlign=top;align=left;spacingLeft=30;fontColor=#248814;dashed=0;" parent="IdMlChO3T7YkpccGCHXc-2" vertex="1">
          <mxGeometry x="100" y="60" width="260" height="180" as="geometry" />
        </mxCell>
        <mxCell id="jqDr1Dvi4tTG_jrGCBDq-0" value="Public subnet AZ2" style="points=[[0,0],[0.25,0],[0.5,0],[0.75,0],[1,0],[1,0.25],[1,0.5],[1,0.75],[1,1],[0.75,1],[0.5,1],[0.25,1],[0,1],[0,0.75],[0,0.5],[0,0.25]];outlineConnect=0;gradientColor=none;html=1;whiteSpace=wrap;fontSize=12;fontStyle=0;container=1;pointerEvents=0;collapsible=0;recursiveResize=0;shape=mxgraph.aws4.group;grIcon=mxgraph.aws4.group_security_group;grStroke=0;strokeColor=#7AA116;fillColor=#F2F6E8;verticalAlign=top;align=left;spacingLeft=30;fontColor=#248814;dashed=0;" parent="IdMlChO3T7YkpccGCHXc-2" vertex="1">
          <mxGeometry x="380" y="60" width="264" height="180" as="geometry" />
        </mxCell>
        <mxCell id="jqDr1Dvi4tTG_jrGCBDq-10" value="Public subnet AZ3" style="points=[[0,0],[0.25,0],[0.5,0],[0.75,0],[1,0],[1,0.25],[1,0.5],[1,0.75],[1,1],[0.75,1],[0.5,1],[0.25,1],[0,1],[0,0.75],[0,0.5],[0,0.25]];outlineConnect=0;gradientColor=none;html=1;whiteSpace=wrap;fontSize=12;fontStyle=0;container=1;pointerEvents=0;collapsible=0;recursiveResize=0;shape=mxgraph.aws4.group;grIcon=mxgraph.aws4.group_security_group;grStroke=0;strokeColor=#7AA116;fillColor=#F2F6E8;verticalAlign=top;align=left;spacingLeft=30;fontColor=#248814;dashed=0;" parent="IdMlChO3T7YkpccGCHXc-2" vertex="1">
          <mxGeometry x="660" y="60" width="264" height="180" as="geometry" />
        </mxCell>
        <mxCell id="jqDr1Dvi4tTG_jrGCBDq-3" value="Private subnet (with internet access)&lt;br&gt;AZ2" style="points=[[0,0],[0.25,0],[0.5,0],[0.75,0],[1,0],[1,0.25],[1,0.5],[1,0.75],[1,1],[0.75,1],[0.5,1],[0.25,1],[0,1],[0,0.75],[0,0.5],[0,0.25]];outlineConnect=0;gradientColor=none;html=1;whiteSpace=wrap;fontSize=12;fontStyle=0;container=1;pointerEvents=0;collapsible=0;recursiveResize=0;shape=mxgraph.aws4.group;grIcon=mxgraph.aws4.group_security_group;grStroke=0;strokeColor=#00A4A6;fillColor=#E6F6F7;verticalAlign=top;align=left;spacingLeft=30;fontColor=#147EBA;dashed=0;" parent="IdMlChO3T7YkpccGCHXc-2" vertex="1">
          <mxGeometry x="380" y="250" width="260" height="141" as="geometry" />
        </mxCell>
        <mxCell id="IdMlChO3T7YkpccGCHXc-7" value="Private subnet (with internet access)&lt;br&gt;AZ1" style="points=[[0,0],[0.25,0],[0.5,0],[0.75,0],[1,0],[1,0.25],[1,0.5],[1,0.75],[1,1],[0.75,1],[0.5,1],[0.25,1],[0,1],[0,0.75],[0,0.5],[0,0.25]];outlineConnect=0;gradientColor=none;html=1;whiteSpace=wrap;fontSize=12;fontStyle=0;container=1;pointerEvents=0;collapsible=0;recursiveResize=0;shape=mxgraph.aws4.group;grIcon=mxgraph.aws4.group_security_group;grStroke=0;strokeColor=#00A4A6;fillColor=#E6F6F7;verticalAlign=top;align=left;spacingLeft=30;fontColor=#147EBA;dashed=0;" parent="IdMlChO3T7YkpccGCHXc-2" vertex="1">
          <mxGeometry x="100" y="250" width="260" height="141" as="geometry" />
        </mxCell>
        <mxCell id="IdMlChO3T7YkpccGCHXc-9" value="Private subnet (without internet access)&amp;nbsp;&lt;br&gt;AZ 1" style="points=[[0,0],[0.25,0],[0.5,0],[0.75,0],[1,0],[1,0.25],[1,0.5],[1,0.75],[1,1],[0.75,1],[0.5,1],[0.25,1],[0,1],[0,0.75],[0,0.5],[0,0.25]];outlineConnect=0;gradientColor=none;html=1;whiteSpace=wrap;fontSize=12;fontStyle=0;container=1;pointerEvents=0;collapsible=0;recursiveResize=0;shape=mxgraph.aws4.group;grIcon=mxgraph.aws4.group_security_group;grStroke=0;strokeColor=#00A4A6;fillColor=#E6F6F7;verticalAlign=top;align=left;spacingLeft=30;fontColor=#147EBA;dashed=0;" parent="IdMlChO3T7YkpccGCHXc-2" vertex="1">
          <mxGeometry x="100" y="410" width="254" height="180" as="geometry" />
        </mxCell>
        <mxCell id="jqDr1Dvi4tTG_jrGCBDq-5" value="Private subnet (without internet access)&lt;br&gt;AZ 2" style="points=[[0,0],[0.25,0],[0.5,0],[0.75,0],[1,0],[1,0.25],[1,0.5],[1,0.75],[1,1],[0.75,1],[0.5,1],[0.25,1],[0,1],[0,0.75],[0,0.5],[0,0.25]];outlineConnect=0;gradientColor=none;html=1;whiteSpace=wrap;fontSize=12;fontStyle=0;container=1;pointerEvents=0;collapsible=0;recursiveResize=0;shape=mxgraph.aws4.group;grIcon=mxgraph.aws4.group_security_group;grStroke=0;strokeColor=#00A4A6;fillColor=#E6F6F7;verticalAlign=top;align=left;spacingLeft=30;fontColor=#147EBA;dashed=0;" parent="IdMlChO3T7YkpccGCHXc-2" vertex="1">
          <mxGeometry x="380" y="410" width="254" height="180" as="geometry" />
        </mxCell>
        <mxCell id="jqDr1Dvi4tTG_jrGCBDq-13" value="Private subnet (with internet access)&lt;br&gt;AZ3" style="points=[[0,0],[0.25,0],[0.5,0],[0.75,0],[1,0],[1,0.25],[1,0.5],[1,0.75],[1,1],[0.75,1],[0.5,1],[0.25,1],[0,1],[0,0.75],[0,0.5],[0,0.25]];outlineConnect=0;gradientColor=none;html=1;whiteSpace=wrap;fontSize=12;fontStyle=0;container=1;pointerEvents=0;collapsible=0;recursiveResize=0;shape=mxgraph.aws4.group;grIcon=mxgraph.aws4.group_security_group;grStroke=0;strokeColor=#00A4A6;fillColor=#E6F6F7;verticalAlign=top;align=left;spacingLeft=30;fontColor=#147EBA;dashed=0;" parent="IdMlChO3T7YkpccGCHXc-2" vertex="1">
          <mxGeometry x="660" y="250" width="264" height="141" as="geometry" />
        </mxCell>
        <mxCell id="jqDr1Dvi4tTG_jrGCBDq-15" value="Private subnet (without internet access)&lt;br&gt;AZ3" style="points=[[0,0],[0.25,0],[0.5,0],[0.75,0],[1,0],[1,0.25],[1,0.5],[1,0.75],[1,1],[0.75,1],[0.5,1],[0.25,1],[0,1],[0,0.75],[0,0.5],[0,0.25]];outlineConnect=0;gradientColor=none;html=1;whiteSpace=wrap;fontSize=12;fontStyle=0;container=1;pointerEvents=0;collapsible=0;recursiveResize=0;shape=mxgraph.aws4.group;grIcon=mxgraph.aws4.group_security_group;grStroke=0;strokeColor=#00A4A6;fillColor=#E6F6F7;verticalAlign=top;align=left;spacingLeft=30;fontColor=#147EBA;dashed=0;" parent="IdMlChO3T7YkpccGCHXc-2" vertex="1">
          <mxGeometry x="660" y="410" width="254" height="180" as="geometry" />
        </mxCell>
        <mxCell id="WCRBkQZXcrFEmquGuPjR-0" value="texbox" parent="IdMlChO3T7YkpccGCHXc-0" />
        <mxCell id="WCRBkQZXcrFEmquGuPjR-1" value="&lt;font style=&quot;font-size: 24px;&quot;&gt;&lt;br&gt;&lt;/font&gt;&lt;p data-end=&quot;226&quot; data-start=&quot;172&quot;&gt;&lt;strong data-end=&quot;226&quot; data-start=&quot;172&quot;&gt;&lt;font style=&quot;font-size: 24px;&quot;&gt;AWS Networking – VPC Design (2): Multi-AZ Setup&lt;/font&gt;&lt;/strong&gt;&lt;/p&gt;&lt;p data-end=&quot;441&quot; data-start=&quot;228&quot;&gt;&lt;font style=&quot;font-size: 24px;&quot;&gt;For web apps, &lt;strong data-end=&quot;264&quot; data-start=&quot;242&quot;&gt;resilience matters&lt;/strong&gt;. AWS Regions are divided into &lt;strong data-end=&quot;323&quot; data-start=&quot;295&quot;&gt;Availability Zones (AZs)&lt;/strong&gt; — each one is made up of one or more physically separate datacenters with independent power, cooling, and networking.&lt;/font&gt;&lt;/p&gt;&lt;p data-end=&quot;523&quot; data-start=&quot;443&quot;&gt;&lt;font style=&quot;font-size: 24px;&quot;&gt;AZs within the same region are connected by &lt;strong data-end=&quot;514&quot; data-start=&quot;487&quot;&gt;fast, low-latency links&lt;/strong&gt; (&amp;lt;10ms).&lt;/font&gt;&lt;/p&gt;&lt;p data-end=&quot;617&quot; data-start=&quot;525&quot;&gt;&lt;font style=&quot;font-size: 24px;&quot;&gt;To survive failures (like an AZ outage), you should &lt;strong data-end=&quot;616&quot; data-start=&quot;577&quot;&gt;spread your app across multiple AZs&lt;/strong&gt;.&lt;/font&gt;&lt;/p&gt;&lt;p data-end=&quot;640&quot; data-start=&quot;624&quot;&gt;&lt;strong data-end=&quot;640&quot; data-start=&quot;624&quot;&gt;&lt;font style=&quot;font-size: 24px;&quot;&gt;How it works&lt;/font&gt;&lt;/strong&gt;&lt;/p&gt;&lt;ul data-end=&quot;1093&quot; data-start=&quot;642&quot;&gt;&lt;li data-end=&quot;765&quot; data-start=&quot;642&quot;&gt;&lt;p data-end=&quot;765&quot; data-start=&quot;644&quot;&gt;&lt;font style=&quot;font-size: 24px;&quot;&gt;You create &lt;strong data-end=&quot;676&quot; data-start=&quot;655&quot;&gt;one subnet per AZ&lt;/strong&gt;.&lt;br data-end=&quot;680&quot; data-start=&quot;677&quot;&gt;Even for the same tier (e.g. private app servers), each AZ requires its own subnet.&lt;/font&gt;&lt;/p&gt;&lt;/li&gt;&lt;li data-end=&quot;826&quot; data-start=&quot;767&quot;&gt;&lt;p data-end=&quot;826&quot; data-start=&quot;769&quot;&gt;&lt;font style=&quot;font-size: 24px;&quot;&gt;Most modern apps use &lt;strong data-end=&quot;803&quot; data-start=&quot;790&quot;&gt;three AZs&lt;/strong&gt; for high availability.&lt;/font&gt;&lt;/p&gt;&lt;/li&gt;&lt;li data-end=&quot;923&quot; data-start=&quot;828&quot;&gt;&lt;p data-end=&quot;923&quot; data-start=&quot;830&quot;&gt;&lt;font style=&quot;font-size: 24px;&quot;&gt;An &lt;strong data-end=&quot;868&quot; data-start=&quot;833&quot;&gt;Application Load Balancer (ALB)&lt;/strong&gt; distributes incoming traffic across all available AZs.&lt;/font&gt;&lt;/p&gt;&lt;/li&gt;&lt;li data-end=&quot;1093&quot; data-start=&quot;925&quot;&gt;&lt;p data-end=&quot;1093&quot; data-start=&quot;927&quot;&gt;&lt;font style=&quot;font-size: 24px;&quot;&gt;Multi-AZ services like &lt;strong data-end=&quot;971&quot; data-start=&quot;941&quot;&gt;Auto Scaling Groups (ASGs)&lt;/strong&gt;, &lt;strong data-end=&quot;989&quot; data-start=&quot;973&quot;&gt;ECS Services&lt;/strong&gt;, and &lt;strong data-end=&quot;1005&quot; data-start=&quot;995&quot;&gt;Lambda&lt;/strong&gt; can automatically maintain enough healthy instances in each AZ and replace failed ones.&lt;br&gt;&lt;br&gt;&lt;/font&gt;&lt;/p&gt;&lt;/li&gt;&lt;/ul&gt;&lt;p data-end=&quot;1306&quot; data-start=&quot;1100&quot;&gt;&lt;font style=&quot;font-size: 24px;&quot;&gt;&lt;strong style=&quot;&quot; data-end=&quot;1126&quot; data-start=&quot;1100&quot;&gt;⚠️ Legacy Apps Warning&lt;/strong&gt;&lt;br&gt;Apps that make lots of internal or database calls per request may be &lt;strong style=&quot;&quot; data-end=&quot;1231&quot; data-start=&quot;1198&quot;&gt;sensitive to cross-AZ latency&lt;/strong&gt;.&lt;br data-end=&quot;1235&quot; data-start=&quot;1232&quot;&gt;&lt;br&gt;Test them carefully or refactor to reduce unnecessary AZ-to-AZ traffic.&lt;/font&gt;&lt;/p&gt;" style="text;html=1;whiteSpace=wrap;overflow=hidden;rounded=1;fillColor=#f5f5f5;fontColor=#333333;strokeColor=#666666;arcSize=8;spacingLeft=30;spacingBottom=30;container=1;" parent="WCRBkQZXcrFEmquGuPjR-0" vertex="1">
          <mxGeometry x="-1230" y="30" width="700" height="970" as="geometry" />
        </mxCell>
        <mxCell id="WCRBkQZXcrFEmquGuPjR-2" value="&lt;p data-end=&quot;1328&quot; data-start=&quot;1302&quot;&gt;&lt;strong data-end=&quot;1326&quot; data-start=&quot;1302&quot;&gt;&lt;font style=&quot;font-size: 20px;&quot;&gt;✅ Developer Takeaway&lt;/font&gt;&lt;/strong&gt;&lt;/p&gt;&lt;ul data-end=&quot;1600&quot; data-start=&quot;1329&quot;&gt;&lt;li data-end=&quot;1393&quot; data-start=&quot;1329&quot;&gt;&lt;p data-end=&quot;1393&quot; data-start=&quot;1331&quot;&gt;&lt;font style=&quot;font-size: 20px;&quot;&gt;Use &lt;strong data-end=&quot;1354&quot; data-start=&quot;1335&quot;&gt;1 subnet per AZ&lt;/strong&gt; and run your app across &lt;strong data-end=&quot;1390&quot; data-start=&quot;1379&quot;&gt;2–3 AZs&lt;/strong&gt;.&lt;/font&gt;&lt;/p&gt;&lt;/li&gt;&lt;li data-end=&quot;1491&quot; data-start=&quot;1394&quot;&gt;&lt;p data-end=&quot;1491&quot; data-start=&quot;1396&quot;&gt;&lt;font style=&quot;font-size: 20px;&quot;&gt;Let &lt;strong data-end=&quot;1426&quot; data-start=&quot;1400&quot;&gt;ALB route user traffic&lt;/strong&gt;, and let &lt;strong data-end=&quot;1452&quot; data-start=&quot;1436&quot;&gt;Auto Scaling&lt;/strong&gt; keep your services running smoothly.&lt;/font&gt;&lt;/p&gt;&lt;/li&gt;&lt;li data-end=&quot;1600&quot; data-start=&quot;1492&quot;&gt;&lt;p data-end=&quot;1600&quot; data-start=&quot;1494&quot;&gt;&lt;font style=&quot;font-size: 20px;&quot;&gt;Stateless services work best across AZs. Stateful ones may need extra care (e.g. for sessions or storage).&lt;/font&gt;&lt;/p&gt;&lt;/li&gt;&lt;li data-end=&quot;1600&quot; data-start=&quot;1492&quot;&gt;&lt;p data-end=&quot;1600&quot; data-start=&quot;1494&quot;&gt;&lt;font style=&quot;font-size: 20px;&quot;&gt;Non-VPC services like S3 and DynamoDb are multi-AZ by default&lt;/font&gt;&lt;/p&gt;&lt;/li&gt;&lt;li data-end=&quot;1600&quot; data-start=&quot;1492&quot;&gt;&lt;p data-end=&quot;1600&quot; data-start=&quot;1494&quot;&gt;&lt;font style=&quot;font-size: 20px;&quot;&gt;With 3 public subnets, 3 private with internet, and 3 private without internet, you can cover most use-cases.&amp;nbsp;&lt;/font&gt;&lt;/p&gt;&lt;/li&gt;&lt;br&gt;&lt;/ul&gt;" style="text;html=1;whiteSpace=wrap;overflow=hidden;rounded=1;fillColor=#f5f5f5;fontColor=#333333;strokeColor=#666666;arcSize=8;spacingLeft=30;spacingBottom=30;container=1;" parent="WCRBkQZXcrFEmquGuPjR-0" vertex="1">
          <mxGeometry x="710" y="290" width="550" height="430" as="geometry" />
        </mxCell>
        <mxCell id="WCRBkQZXcrFEmquGuPjR-3" value="application" parent="IdMlChO3T7YkpccGCHXc-0" />
        <mxCell id="WCRBkQZXcrFEmquGuPjR-5" style="edgeStyle=orthogonalEdgeStyle;rounded=0;orthogonalLoop=1;jettySize=auto;html=1;fillColor=#dae8fc;strokeColor=#6c8ebf;strokeWidth=4;" parent="WCRBkQZXcrFEmquGuPjR-3" source="WCRBkQZXcrFEmquGuPjR-6" target="WCRBkQZXcrFEmquGuPjR-8" edge="1">
          <mxGeometry relative="1" as="geometry" />
        </mxCell>
        <mxCell id="WCRBkQZXcrFEmquGuPjR-6" value="" style="sketch=0;outlineConnect=0;fontColor=#232F3E;gradientColor=none;fillColor=#232F3D;strokeColor=none;dashed=0;verticalLabelPosition=bottom;verticalAlign=top;align=center;html=1;fontSize=12;fontStyle=0;aspect=fixed;pointerEvents=1;shape=mxgraph.aws4.user;" parent="WCRBkQZXcrFEmquGuPjR-3" vertex="1">
          <mxGeometry x="-320" y="10" width="78" height="78" as="geometry" />
        </mxCell>
        <mxCell id="WCRBkQZXcrFEmquGuPjR-10" style="edgeStyle=orthogonalEdgeStyle;rounded=0;orthogonalLoop=1;jettySize=auto;html=1;fontSize=13;strokeWidth=4;fillColor=#dae8fc;strokeColor=#6c8ebf;" parent="WCRBkQZXcrFEmquGuPjR-3" source="WCRBkQZXcrFEmquGuPjR-8" target="WCRBkQZXcrFEmquGuPjR-9" edge="1">
          <mxGeometry relative="1" as="geometry">
            <Array as="points">
              <mxPoint x="60" y="49" />
            </Array>
          </mxGeometry>
        </mxCell>
        <mxCell id="WCRBkQZXcrFEmquGuPjR-8" value="&lt;font style=&quot;font-size: 20px; background-color: light-dark(#ffffff, var(--ge-dark-color, #121212));&quot;&gt;Internet&lt;/font&gt;" style="sketch=0;outlineConnect=0;fontColor=#232F3E;gradientColor=none;fillColor=#232F3D;strokeColor=none;dashed=0;verticalLabelPosition=top;verticalAlign=bottom;align=center;html=1;fontSize=12;fontStyle=0;aspect=fixed;pointerEvents=1;shape=mxgraph.aws4.internet_alt1;labelPosition=center;" parent="WCRBkQZXcrFEmquGuPjR-3" vertex="1">
          <mxGeometry x="-70" y="25" width="78" height="48" as="geometry" />
        </mxCell>
        <mxCell id="WCRBkQZXcrFEmquGuPjR-9" value="&lt;br&gt;&lt;br&gt;&lt;font style=&quot;font-size: 17px;&quot;&gt;AWS Application Load Balancer&lt;/font&gt;" style="fillColor=#dae8fc;strokeColor=#6c8ebf;dashed=0;verticalAlign=top;fontStyle=0;whiteSpace=wrap;html=1;strokeWidth=2;" parent="WCRBkQZXcrFEmquGuPjR-3" vertex="1">
          <mxGeometry x="-320" y="220" width="760" height="90" as="geometry" />
        </mxCell>
        <mxCell id="WCRBkQZXcrFEmquGuPjR-20" style="edgeStyle=orthogonalEdgeStyle;rounded=0;orthogonalLoop=1;jettySize=auto;html=1;strokeWidth=4;fillColor=#dae8fc;strokeColor=#6c8ebf;" parent="WCRBkQZXcrFEmquGuPjR-3" edge="1">
          <mxGeometry relative="1" as="geometry">
            <mxPoint x="50.500000000000455" y="310" as="sourcePoint" />
            <mxPoint x="50" y="408" as="targetPoint" />
          </mxGeometry>
        </mxCell>
        <mxCell id="WCRBkQZXcrFEmquGuPjR-21" value="&lt;font style=&quot;font-size: 17px;&quot;&gt;Auto Scaling group&lt;/font&gt;" style="points=[[0,0],[0.25,0],[0.5,0],[0.75,0],[1,0],[1,0.25],[1,0.5],[1,0.75],[1,1],[0.75,1],[0.5,1],[0.25,1],[0,1],[0,0.75],[0,0.5],[0,0.25]];outlineConnect=0;html=1;whiteSpace=wrap;fontSize=12;fontStyle=0;container=1;pointerEvents=0;collapsible=0;recursiveResize=0;shape=mxgraph.aws4.groupCenter;grIcon=mxgraph.aws4.group_auto_scaling_group;grStroke=1;strokeColor=#d79b00;fillColor=#ffe6cc;verticalAlign=middle;align=center;spacingTop=25;strokeWidth=4;labelPosition=center;verticalLabelPosition=middle;labelBackgroundColor=none;" parent="WCRBkQZXcrFEmquGuPjR-3" vertex="1">
          <mxGeometry x="-322.5" y="410" width="765" height="70" as="geometry" />
        </mxCell>
        <mxCell id="WCRBkQZXcrFEmquGuPjR-22" value="" style="sketch=0;points=[[0,0,0],[0.25,0,0],[0.5,0,0],[0.75,0,0],[1,0,0],[0,1,0],[0.25,1,0],[0.5,1,0],[0.75,1,0],[1,1,0],[0,0.25,0],[0,0.5,0],[0,0.75,0],[1,0.25,0],[1,0.5,0],[1,0.75,0]];outlineConnect=0;fontColor=#232F3E;fillColor=#ED7100;strokeColor=#ffffff;dashed=0;verticalLabelPosition=bottom;verticalAlign=top;align=center;html=1;fontSize=12;fontStyle=0;aspect=fixed;shape=mxgraph.aws4.resourceIcon;resIcon=mxgraph.aws4.ec2;" parent="WCRBkQZXcrFEmquGuPjR-21" vertex="1">
          <mxGeometry x="473" y="15.5" width="39" height="39" as="geometry" />
        </mxCell>
        <mxCell id="WCRBkQZXcrFEmquGuPjR-23" value="" style="sketch=0;points=[[0,0,0],[0.25,0,0],[0.5,0,0],[0.75,0,0],[1,0,0],[0,1,0],[0.25,1,0],[0.5,1,0],[0.75,1,0],[1,1,0],[0,0.25,0],[0,0.5,0],[0,0.75,0],[1,0.25,0],[1,0.5,0],[1,0.75,0]];outlineConnect=0;fontColor=#232F3E;fillColor=#ED7100;strokeColor=#ffffff;dashed=0;verticalLabelPosition=bottom;verticalAlign=top;align=center;html=1;fontSize=12;fontStyle=0;aspect=fixed;shape=mxgraph.aws4.resourceIcon;resIcon=mxgraph.aws4.ec2;" parent="WCRBkQZXcrFEmquGuPjR-21" vertex="1">
          <mxGeometry x="69.75" y="15.5" width="39" height="39" as="geometry" />
        </mxCell>
        <mxCell id="WCRBkQZXcrFEmquGuPjR-24" value="" style="sketch=0;points=[[0,0,0],[0.25,0,0],[0.5,0,0],[0.75,0,0],[1,0,0],[0,1,0],[0.25,1,0],[0.5,1,0],[0.75,1,0],[1,1,0],[0,0.25,0],[0,0.5,0],[0,0.75,0],[1,0.25,0],[1,0.5,0],[1,0.75,0]];outlineConnect=0;fontColor=#232F3E;fillColor=#ED7100;strokeColor=#ffffff;dashed=0;verticalLabelPosition=bottom;verticalAlign=top;align=center;html=1;fontSize=12;fontStyle=0;aspect=fixed;shape=mxgraph.aws4.resourceIcon;resIcon=mxgraph.aws4.ec2;" parent="WCRBkQZXcrFEmquGuPjR-21" vertex="1">
          <mxGeometry x="639.75" y="15.5" width="39" height="39" as="geometry" />
        </mxCell>
        <mxCell id="WCRBkQZXcrFEmquGuPjR-27" style="edgeStyle=orthogonalEdgeStyle;rounded=0;orthogonalLoop=1;jettySize=auto;html=1;strokeWidth=4;fillColor=#dae8fc;strokeColor=#6c8ebf;" parent="WCRBkQZXcrFEmquGuPjR-3" target="WCRBkQZXcrFEmquGuPjR-28" edge="1">
          <mxGeometry relative="1" as="geometry">
            <mxPoint x="39.44444444444434" y="481" as="sourcePoint" />
            <mxPoint x="-259.88888888888914" y="560.0000000000005" as="targetPoint" />
            <Array as="points">
              <mxPoint x="39" y="540" />
              <mxPoint x="-260" y="540" />
            </Array>
          </mxGeometry>
        </mxCell>
        <mxCell id="WCRBkQZXcrFEmquGuPjR-28" value="AWS Rds&lt;br&gt;database" style="sketch=0;points=[[0,0,0],[0.25,0,0],[0.5,0,0],[0.75,0,0],[1,0,0],[0,1,0],[0.25,1,0],[0.5,1,0],[0.75,1,0],[1,1,0],[0,0.25,0],[0,0.5,0],[0,0.75,0],[1,0.25,0],[1,0.5,0],[1,0.75,0]];outlineConnect=0;fontColor=#232F3E;fillColor=#C925D1;strokeColor=#ffffff;dashed=0;verticalLabelPosition=bottom;verticalAlign=top;align=center;html=1;fontSize=12;fontStyle=0;aspect=fixed;shape=mxgraph.aws4.resourceIcon;resIcon=mxgraph.aws4.rds;" parent="WCRBkQZXcrFEmquGuPjR-3" vertex="1">
          <mxGeometry x="-300" y="568" width="78" height="78" as="geometry" />
        </mxCell>
        <mxCell id="WCRBkQZXcrFEmquGuPjR-29" value="AWS Rds&lt;br&gt;failover database" style="sketch=0;points=[[0,0,0],[0.25,0,0],[0.5,0,0],[0.75,0,0],[1,0,0],[0,1,0],[0.25,1,0],[0.5,1,0],[0.75,1,0],[1,1,0],[0,0.25,0],[0,0.5,0],[0,0.75,0],[1,0.25,0],[1,0.5,0],[1,0.75,0]];outlineConnect=0;fontColor=#232F3E;fillColor=#C925D1;strokeColor=#ffffff;dashed=0;verticalLabelPosition=bottom;verticalAlign=top;align=center;html=1;fontSize=12;fontStyle=0;aspect=fixed;shape=mxgraph.aws4.resourceIcon;resIcon=mxgraph.aws4.rds;opacity=60;" parent="WCRBkQZXcrFEmquGuPjR-3" vertex="1">
          <mxGeometry x="10" y="560" width="78" height="78" as="geometry" />
        </mxCell>
      </root>
    </mxGraphModel>
  </diagram>
  <diagram name="vpc-design-3" id="5DmbeRH8xLxiEVBghfA3">
    <mxGraphModel dx="3401" dy="2273" grid="1" gridSize="10" guides="1" tooltips="1" connect="1" arrows="1" fold="1" page="1" pageScale="1" pageWidth="827" pageHeight="1169" math="0" shadow="0">
      <root>
        <mxCell id="-9Ojm-nYIf-zTfuWbUYO-0" />
        <mxCell id="-9Ojm-nYIf-zTfuWbUYO-1" style="locked=1;" parent="-9Ojm-nYIf-zTfuWbUYO-0" />
        <mxCell id="-9Ojm-nYIf-zTfuWbUYO-2" value="&lt;font style=&quot;font-size: 19px;&quot;&gt;AWS Account&lt;/font&gt;" style="points=[[0,0],[0.25,0],[0.5,0],[0.75,0],[1,0],[1,0.25],[1,0.5],[1,0.75],[1,1],[0.75,1],[0.5,1],[0.25,1],[0,1],[0,0.75],[0,0.5],[0,0.25]];outlineConnect=0;gradientColor=none;html=1;whiteSpace=wrap;fontSize=12;fontStyle=0;container=1;pointerEvents=0;collapsible=0;recursiveResize=0;shape=mxgraph.aws4.group;grIcon=mxgraph.aws4.group_account;strokeColor=#CD2264;fillColor=none;verticalAlign=top;align=left;spacingLeft=30;fontColor=#CD2264;dashed=0;" parent="-9Ojm-nYIf-zTfuWbUYO-1" vertex="1">
          <mxGeometry x="-460" y="90" width="1100" height="770" as="geometry" />
        </mxCell>
        <mxCell id="-9Ojm-nYIf-zTfuWbUYO-3" value="VPC" style="sketch=0;outlineConnect=0;gradientColor=none;html=1;whiteSpace=wrap;fontSize=12;fontStyle=0;shape=mxgraph.aws4.group;grIcon=mxgraph.aws4.group_vpc;strokeColor=#879196;fillColor=none;verticalAlign=top;align=left;spacingLeft=30;fontColor=#879196;dashed=0;" parent="-9Ojm-nYIf-zTfuWbUYO-2" vertex="1">
          <mxGeometry x="80.5" y="40" width="879.5" height="570" as="geometry" />
        </mxCell>
        <mxCell id="-9Ojm-nYIf-zTfuWbUYO-4" value="Public subnet AZ1" style="points=[[0,0],[0.25,0],[0.5,0],[0.75,0],[1,0],[1,0.25],[1,0.5],[1,0.75],[1,1],[0.75,1],[0.5,1],[0.25,1],[0,1],[0,0.75],[0,0.5],[0,0.25]];outlineConnect=0;gradientColor=none;html=1;whiteSpace=wrap;fontSize=12;fontStyle=0;container=1;pointerEvents=0;collapsible=0;recursiveResize=0;shape=mxgraph.aws4.group;grIcon=mxgraph.aws4.group_security_group;grStroke=0;strokeColor=#7AA116;fillColor=#F2F6E8;verticalAlign=top;align=left;spacingLeft=30;fontColor=#248814;dashed=0;" parent="-9Ojm-nYIf-zTfuWbUYO-2" vertex="1">
          <mxGeometry x="100" y="60" width="260" height="180" as="geometry" />
        </mxCell>
        <mxCell id="-9Ojm-nYIf-zTfuWbUYO-5" value="Public subnet AZ2" style="points=[[0,0],[0.25,0],[0.5,0],[0.75,0],[1,0],[1,0.25],[1,0.5],[1,0.75],[1,1],[0.75,1],[0.5,1],[0.25,1],[0,1],[0,0.75],[0,0.5],[0,0.25]];outlineConnect=0;gradientColor=none;html=1;whiteSpace=wrap;fontSize=12;fontStyle=0;container=1;pointerEvents=0;collapsible=0;recursiveResize=0;shape=mxgraph.aws4.group;grIcon=mxgraph.aws4.group_security_group;grStroke=0;strokeColor=#7AA116;fillColor=#F2F6E8;verticalAlign=top;align=left;spacingLeft=30;fontColor=#248814;dashed=0;" parent="-9Ojm-nYIf-zTfuWbUYO-2" vertex="1">
          <mxGeometry x="380" y="60" width="264" height="180" as="geometry" />
        </mxCell>
        <mxCell id="-9Ojm-nYIf-zTfuWbUYO-6" value="Public subnet AZ3" style="points=[[0,0],[0.25,0],[0.5,0],[0.75,0],[1,0],[1,0.25],[1,0.5],[1,0.75],[1,1],[0.75,1],[0.5,1],[0.25,1],[0,1],[0,0.75],[0,0.5],[0,0.25]];outlineConnect=0;gradientColor=none;html=1;whiteSpace=wrap;fontSize=12;fontStyle=0;container=1;pointerEvents=0;collapsible=0;recursiveResize=0;shape=mxgraph.aws4.group;grIcon=mxgraph.aws4.group_security_group;grStroke=0;strokeColor=#7AA116;fillColor=#F2F6E8;verticalAlign=top;align=left;spacingLeft=30;fontColor=#248814;dashed=0;" parent="-9Ojm-nYIf-zTfuWbUYO-2" vertex="1">
          <mxGeometry x="660" y="60" width="264" height="180" as="geometry" />
        </mxCell>
        <mxCell id="-9Ojm-nYIf-zTfuWbUYO-7" value="Private subnet (with internet access)&lt;br&gt;AZ2" style="points=[[0,0],[0.25,0],[0.5,0],[0.75,0],[1,0],[1,0.25],[1,0.5],[1,0.75],[1,1],[0.75,1],[0.5,1],[0.25,1],[0,1],[0,0.75],[0,0.5],[0,0.25]];outlineConnect=0;gradientColor=none;html=1;whiteSpace=wrap;fontSize=12;fontStyle=0;container=1;pointerEvents=0;collapsible=0;recursiveResize=0;shape=mxgraph.aws4.group;grIcon=mxgraph.aws4.group_security_group;grStroke=0;strokeColor=#00A4A6;fillColor=#E6F6F7;verticalAlign=top;align=left;spacingLeft=30;fontColor=#147EBA;dashed=0;" parent="-9Ojm-nYIf-zTfuWbUYO-2" vertex="1">
          <mxGeometry x="380" y="250" width="260" height="141" as="geometry" />
        </mxCell>
        <mxCell id="-9Ojm-nYIf-zTfuWbUYO-8" value="Private subnet (with internet access)&lt;br&gt;AZ1" style="points=[[0,0],[0.25,0],[0.5,0],[0.75,0],[1,0],[1,0.25],[1,0.5],[1,0.75],[1,1],[0.75,1],[0.5,1],[0.25,1],[0,1],[0,0.75],[0,0.5],[0,0.25]];outlineConnect=0;gradientColor=none;html=1;whiteSpace=wrap;fontSize=12;fontStyle=0;container=1;pointerEvents=0;collapsible=0;recursiveResize=0;shape=mxgraph.aws4.group;grIcon=mxgraph.aws4.group_security_group;grStroke=0;strokeColor=#00A4A6;fillColor=#E6F6F7;verticalAlign=top;align=left;spacingLeft=30;fontColor=#147EBA;dashed=0;" parent="-9Ojm-nYIf-zTfuWbUYO-2" vertex="1">
          <mxGeometry x="100" y="250" width="260" height="141" as="geometry" />
        </mxCell>
        <mxCell id="-9Ojm-nYIf-zTfuWbUYO-9" value="Private subnet (without internet access)&amp;nbsp;&lt;br&gt;AZ 1" style="points=[[0,0],[0.25,0],[0.5,0],[0.75,0],[1,0],[1,0.25],[1,0.5],[1,0.75],[1,1],[0.75,1],[0.5,1],[0.25,1],[0,1],[0,0.75],[0,0.5],[0,0.25]];outlineConnect=0;gradientColor=none;html=1;whiteSpace=wrap;fontSize=12;fontStyle=0;container=1;pointerEvents=0;collapsible=0;recursiveResize=0;shape=mxgraph.aws4.group;grIcon=mxgraph.aws4.group_security_group;grStroke=0;strokeColor=#00A4A6;fillColor=#E6F6F7;verticalAlign=top;align=left;spacingLeft=30;fontColor=#147EBA;dashed=0;" parent="-9Ojm-nYIf-zTfuWbUYO-2" vertex="1">
          <mxGeometry x="100" y="410" width="254" height="180" as="geometry" />
        </mxCell>
        <mxCell id="-9Ojm-nYIf-zTfuWbUYO-10" value="Private subnet (without internet access)&lt;br&gt;AZ 2" style="points=[[0,0],[0.25,0],[0.5,0],[0.75,0],[1,0],[1,0.25],[1,0.5],[1,0.75],[1,1],[0.75,1],[0.5,1],[0.25,1],[0,1],[0,0.75],[0,0.5],[0,0.25]];outlineConnect=0;gradientColor=none;html=1;whiteSpace=wrap;fontSize=12;fontStyle=0;container=1;pointerEvents=0;collapsible=0;recursiveResize=0;shape=mxgraph.aws4.group;grIcon=mxgraph.aws4.group_security_group;grStroke=0;strokeColor=#00A4A6;fillColor=#E6F6F7;verticalAlign=top;align=left;spacingLeft=30;fontColor=#147EBA;dashed=0;" parent="-9Ojm-nYIf-zTfuWbUYO-2" vertex="1">
          <mxGeometry x="380" y="410" width="254" height="180" as="geometry" />
        </mxCell>
        <mxCell id="-9Ojm-nYIf-zTfuWbUYO-11" value="Private subnet (with internet access)&lt;br&gt;AZ3" style="points=[[0,0],[0.25,0],[0.5,0],[0.75,0],[1,0],[1,0.25],[1,0.5],[1,0.75],[1,1],[0.75,1],[0.5,1],[0.25,1],[0,1],[0,0.75],[0,0.5],[0,0.25]];outlineConnect=0;gradientColor=none;html=1;whiteSpace=wrap;fontSize=12;fontStyle=0;container=1;pointerEvents=0;collapsible=0;recursiveResize=0;shape=mxgraph.aws4.group;grIcon=mxgraph.aws4.group_security_group;grStroke=0;strokeColor=#00A4A6;fillColor=#E6F6F7;verticalAlign=top;align=left;spacingLeft=30;fontColor=#147EBA;dashed=0;" parent="-9Ojm-nYIf-zTfuWbUYO-2" vertex="1">
          <mxGeometry x="660" y="250" width="264" height="141" as="geometry" />
        </mxCell>
        <mxCell id="-9Ojm-nYIf-zTfuWbUYO-12" value="Private subnet (without internet access)&lt;br&gt;AZ3" style="points=[[0,0],[0.25,0],[0.5,0],[0.75,0],[1,0],[1,0.25],[1,0.5],[1,0.75],[1,1],[0.75,1],[0.5,1],[0.25,1],[0,1],[0,0.75],[0,0.5],[0,0.25]];outlineConnect=0;gradientColor=none;html=1;whiteSpace=wrap;fontSize=12;fontStyle=0;container=1;pointerEvents=0;collapsible=0;recursiveResize=0;shape=mxgraph.aws4.group;grIcon=mxgraph.aws4.group_security_group;grStroke=0;strokeColor=#00A4A6;fillColor=#E6F6F7;verticalAlign=top;align=left;spacingLeft=30;fontColor=#147EBA;dashed=0;" parent="-9Ojm-nYIf-zTfuWbUYO-2" vertex="1">
          <mxGeometry x="660" y="410" width="254" height="180" as="geometry" />
        </mxCell>
        <mxCell id="-9Ojm-nYIf-zTfuWbUYO-13" value="texbox" style="" parent="-9Ojm-nYIf-zTfuWbUYO-0" />
        <mxCell id="-9Ojm-nYIf-zTfuWbUYO-14" value="&lt;font style=&quot;font-size: 24px;&quot;&gt;&lt;br&gt;&lt;/font&gt;&lt;p data-end=&quot;226&quot; data-start=&quot;172&quot;&gt;&lt;strong style=&quot;background-color: transparent; color: light-dark(rgb(51, 51, 51), rgb(193, 193, 193));&quot; data-end=&quot;234&quot; data-start=&quot;166&quot;&gt;&lt;font style=&quot;font-size: 24px;&quot;&gt;AWS Networking – VPC Design (3): Granular Networking Controls&lt;/font&gt;&lt;/strong&gt;&lt;/p&gt;&lt;article data-scroll-anchor=&quot;true&quot; data-testid=&quot;conversation-turn-62&quot; dir=&quot;auto&quot; class=&quot;text-token-text-primary w-full&quot;&gt;&lt;div class=&quot;text-base my-auto mx-auto py-5 [--thread-content-margin:--spacing(4)] @[37rem]:[--thread-content-margin:--spacing(6)] @[72rem]:[--thread-content-margin:--spacing(16)] px-(--thread-content-margin)&quot;&gt;&lt;div tabindex=&quot;-1&quot; class=&quot;[--thread-content-max-width:32rem] @[34rem]:[--thread-content-max-width:40rem] @[64rem]:[--thread-content-max-width:48rem] mx-auto flex max-w-(--thread-content-max-width) flex-1 text-base gap-4 md:gap-5 lg:gap-6 group/turn-messages focus-visible:outline-hidden&quot;&gt;&lt;div class=&quot;group/conversation-turn relative flex w-full min-w-0 flex-col agent-turn&quot;&gt;&lt;div class=&quot;relative flex-col gap-1 md:gap-3&quot;&gt;&lt;div class=&quot;flex max-w-full flex-col grow&quot;&gt;&lt;div data-message-model-slug=&quot;gpt-4o&quot; class=&quot;min-h-8 text-message relative flex w-full flex-col items-end gap-2 text-start break-words whitespace-normal [.text-message+&amp;amp;]:mt-5&quot; dir=&quot;auto&quot; data-message-id=&quot;928a476f-6bec-4550-a73a-40f13f2a300e&quot; data-message-author-role=&quot;assistant&quot;&gt;&lt;div class=&quot;flex w-full flex-col gap-1 empty:hidden first:pt-[3px]&quot;&gt;&lt;div class=&quot;markdown prose dark:prose-invert w-full break-words light&quot;&gt;&lt;p data-end=&quot;406&quot; data-start=&quot;236&quot;&gt;&lt;font style=&quot;font-size: 24px;&quot;&gt;Once your app is running in a VPC, you need to &lt;strong data-end=&quot;329&quot; data-start=&quot;283&quot;&gt;control what traffic is allowed in and out&lt;/strong&gt;. This is where &lt;strong data-end=&quot;364&quot; data-start=&quot;345&quot;&gt;security groups&lt;/strong&gt;, &lt;strong data-end=&quot;382&quot; data-start=&quot;366&quot;&gt;route tables&lt;/strong&gt;, and &lt;strong data-end=&quot;397&quot; data-start=&quot;388&quot;&gt;NACLs&lt;/strong&gt; come in.&lt;br&gt;&lt;br&gt;&lt;/font&gt;&lt;/p&gt;&lt;p data-end=&quot;454&quot; data-start=&quot;413&quot;&gt;&lt;strong data-end=&quot;454&quot; data-start=&quot;413&quot;&gt;&lt;font style=&quot;font-size: 24px;&quot;&gt;Security Groups (most important!)&lt;/font&gt;&lt;/strong&gt;&lt;/p&gt;&lt;p data-end=&quot;618&quot; data-start=&quot;456&quot;&gt;&lt;font style=&quot;font-size: 24px;&quot;&gt;Think of a &lt;strong data-end=&quot;485&quot; data-start=&quot;467&quot;&gt;security group&lt;/strong&gt; as a &lt;strong data-end=&quot;524&quot; data-start=&quot;491&quot;&gt;firewall attached to your app&lt;/strong&gt;. It controls &lt;strong data-end=&quot;574&quot; data-start=&quot;538&quot;&gt;who can connect to your resource&lt;/strong&gt;, and &lt;strong data-end=&quot;617&quot; data-start=&quot;580&quot;&gt;what your resource can connect to&lt;/strong&gt;.&lt;/font&gt;&lt;/p&gt;&lt;p data-end=&quot;642&quot; data-start=&quot;620&quot;&gt;&lt;font style=&quot;font-size: 24px;&quot;&gt;You define rules like:&lt;/font&gt;&lt;/p&gt;&lt;ul data-end=&quot;794&quot; data-start=&quot;643&quot;&gt;&lt;li data-end=&quot;687&quot; data-start=&quot;643&quot;&gt;&lt;p data-end=&quot;687&quot; data-start=&quot;645&quot;&gt;&lt;font style=&quot;font-size: 24px;&quot;&gt;“Allow HTTPS (port 443) from the internet”&lt;/font&gt;&lt;/p&gt;&lt;/li&gt;&lt;li data-end=&quot;732&quot; data-start=&quot;688&quot;&gt;&lt;p data-end=&quot;732&quot; data-start=&quot;690&quot;&gt;&lt;font style=&quot;font-size: 24px;&quot;&gt;“Allow access only from the load balancer”&lt;/font&gt;&lt;/p&gt;&lt;/li&gt;&lt;li data-end=&quot;794&quot; data-start=&quot;733&quot;&gt;&lt;p data-end=&quot;794&quot; data-start=&quot;735&quot;&gt;&lt;font style=&quot;font-size: 24px;&quot;&gt;“Allow outgoing calls to any IP on port 443 (to call APIs)”&lt;/font&gt;&lt;/p&gt;&lt;/li&gt;&lt;/ul&gt;&lt;p data-end=&quot;910&quot; data-start=&quot;796&quot;&gt;&lt;font style=&quot;font-size: 24px;&quot;&gt;Security groups apply to the elastic&amp;nbsp;&lt;strong data-end=&quot;846&quot; data-start=&quot;825&quot;&gt;network interface&lt;/strong&gt; (ENI) of each resource. All VPC resources like EC2, Lambda in a VPC, or Fargate get an ENI (you can look them up in the AWS console).&lt;/font&gt;&lt;/p&gt;&lt;p data-end=&quot;1019&quot; data-start=&quot;912&quot;&gt;&lt;font style=&quot;font-size: 24px;&quot;&gt;They’re &lt;strong data-end=&quot;932&quot; data-start=&quot;920&quot;&gt;stateful&lt;/strong&gt;, meaning if you allow outbound traffic, the response is automatically allowed back in.&lt;/font&gt;&lt;/p&gt;&lt;p data-end=&quot;1255&quot; data-start=&quot;1026&quot;&gt;&lt;font style=&quot;font-size: 24px;&quot;&gt;&lt;strong data-end=&quot;1053&quot; data-start=&quot;1026&quot;&gt;&lt;br&gt;Route Tables &amp;amp; NACLs&lt;/strong&gt;&lt;br data-end=&quot;1056&quot; data-start=&quot;1053&quot;&gt;&lt;br&gt;Route tables decide &lt;strong data-end=&quot;1098&quot; data-start=&quot;1076&quot;&gt;where traffic goes&lt;/strong&gt;.&lt;br data-end=&quot;1102&quot; data-start=&quot;1099&quot;&gt;&lt;br&gt;NACLs (network ACLs) are &lt;strong data-end=&quot;1151&quot; data-start=&quot;1127&quot;&gt;subnet-level filters&lt;/strong&gt; that allow or deny traffic.&lt;br data-end=&quot;1182&quot; data-start=&quot;1179&quot;&gt;&lt;br&gt;You usually don’t need to touch these — but it’s good to know they exist.&lt;/font&gt;&lt;/p&gt;&lt;/div&gt;&lt;/div&gt;&lt;/div&gt;&lt;/div&gt;&lt;div class=&quot;flex min-h-[46px] justify-start&quot;&gt;&lt;div class=&quot;touch:-me-2 touch:-ms-3.5 -ms-2.5 -me-1 flex w-full items-center p-1 select-none -mt-1 duration-[1.5s] focus-within:transition-none hover:transition-none pointer-events-none [mask-image:linear-gradient(to_right,black_33%,transparent_66%)] [mask-size:300%_100%] [mask-position:100%_0%] motion-safe:transition-[mask-position] group-hover/turn-messages:pointer-events-auto group-hover/turn-messages:[mask-position:0_0] group-focus-within/turn-messages:pointer-events-auto group-focus-within/turn-messages:[mask-position:0_0] has-data-[state=open]:pointer-events-auto has-data-[state=open]:[mask-position:0_0]&quot;&gt;&lt;button data-state=&quot;closed&quot; data-testid=&quot;copy-turn-action-button&quot; aria-selected=&quot;false&quot; aria-label=&quot;Copy&quot; class=&quot;text-token-text-secondary hover:bg-token-bg-secondary rounded-lg&quot;&gt;&lt;span class=&quot;touch:w-[38px] flex h-[30px] w-[30px] items-center justify-center&quot;&gt;&lt;svg class=&quot;icon-md-heavy&quot; xmlns=&quot;http://www.w3.org/2000/svg&quot; fill=&quot;none&quot; viewBox=&quot;0 0 24 24&quot; height=&quot;24&quot; width=&quot;24&quot;&gt;&lt;path fill=&quot;currentColor&quot; d=&quot;M7 5C7 3.34315 8.34315 2 10 2H19C20.6569 2 22 3.34315 22 5V14C22 15.6569 20.6569 17 19 17H17V19C17 20.6569 15.6569 22 14 22H5C3.34315 22 2 20.6569 2 19V10C2 8.34315 3.34315 7 5 7H7V5ZM9 7H14C15.6569 7 17 8.34315 17 10V15H19C19.5523 15 20 14.5523 20 14V5C20 4.44772 19.5523 4 19 4H10C9.44772 4 9 4.44772 9 5V7ZM5 9C4.44772 9 4 9.44772 4 10V19C4 19.5523 4.44772 20 5 20H14C14.5523 20 15 19.5523 15 19V10C15 9.44772 14.5523 9 14 9H5Z&quot; clip-rule=&quot;evenodd&quot; fill-rule=&quot;evenodd&quot;&gt;&lt;/path&gt;&lt;/svg&gt;&lt;/span&gt;&lt;/button&gt;&lt;button data-state=&quot;closed&quot; data-testid=&quot;good-response-turn-action-button&quot; aria-selected=&quot;false&quot; aria-label=&quot;Good response&quot; class=&quot;text-token-text-secondary hover:bg-token-bg-secondary rounded-lg&quot;&gt;&lt;span class=&quot;touch:w-[38px] flex h-[30px] w-[30px] items-center justify-center&quot;&gt;&lt;svg class=&quot;icon-md-heavy&quot; xmlns=&quot;http://www.w3.org/2000/svg&quot; fill=&quot;none&quot; viewBox=&quot;0 0 24 24&quot; height=&quot;24&quot; width=&quot;24&quot;&gt;&lt;path fill=&quot;currentColor&quot; d=&quot;M12.1318 2.50389C12.3321 2.15338 12.7235 1.95768 13.124 2.00775L13.5778 2.06447C16.0449 2.37286 17.636 4.83353 16.9048 7.20993L16.354 8.99999H17.0722C19.7097 8.99999 21.6253 11.5079 20.9313 14.0525L19.5677 19.0525C19.0931 20.7927 17.5124 22 15.7086 22H6C4.34315 22 3 20.6568 3 19V12C3 10.3431 4.34315 8.99999 6 8.99999H8C8.25952 8.99999 8.49914 8.86094 8.6279 8.63561L12.1318 2.50389ZM10 20H15.7086C16.6105 20 17.4008 19.3964 17.6381 18.5262L19.0018 13.5262C19.3488 12.2539 18.391 11 17.0722 11H15C14.6827 11 14.3841 10.8494 14.1956 10.5941C14.0071 10.3388 13.9509 10.0092 14.0442 9.70591L14.9932 6.62175C15.3384 5.49984 14.6484 4.34036 13.5319 4.08468L10.3644 9.62789C10.0522 10.1742 9.56691 10.5859 9 10.8098V19C9 19.5523 9.44772 20 10 20ZM7 11V19C7 19.3506 7.06015 19.6872 7.17071 20H6C5.44772 20 5 19.5523 5 19V12C5 11.4477 5.44772 11 6 11H7Z&quot; clip-rule=&quot;evenodd&quot; fill-rule=&quot;evenodd&quot;&gt;&lt;/path&gt;&lt;/svg&gt;&lt;/span&gt;&lt;/button&gt;&lt;button data-state=&quot;closed&quot; data-testid=&quot;bad-response-turn-action-button&quot; aria-selected=&quot;false&quot; aria-label=&quot;Bad response&quot; class=&quot;text-token-text-secondary hover:bg-token-bg-secondary rounded-lg&quot;&gt;&lt;span class=&quot;touch:w-[38px] flex h-[30px] w-[30px] items-center justify-center&quot;&gt;&lt;svg class=&quot;icon-md-heavy&quot; xmlns=&quot;http://www.w3.org/2000/svg&quot; fill=&quot;none&quot; viewBox=&quot;0 0 24 24&quot; height=&quot;24&quot; width=&quot;24&quot;&gt;&lt;path fill=&quot;currentColor&quot; d=&quot;M11.8727 21.4961C11.6725 21.8466 11.2811 22.0423 10.8805 21.9922L10.4267 21.9355C7.95958 21.6271 6.36855 19.1665 7.09975 16.7901L7.65054 15H6.93226C4.29476 15 2.37923 12.4921 3.0732 9.94753L4.43684 4.94753C4.91145 3.20728 6.49209 2 8.29589 2H18.0045C19.6614 2 21.0045 3.34315 21.0045 5V12C21.0045 13.6569 19.6614 15 18.0045 15H16.0045C15.745 15 15.5054 15.1391 15.3766 15.3644L11.8727 21.4961ZM14.0045 4H8.29589C7.39399 4 6.60367 4.60364 6.36637 5.47376L5.00273 10.4738C4.65574 11.746 5.61351 13 6.93226 13H9.00451C9.32185 13 9.62036 13.1506 9.8089 13.4059C9.99743 13.6612 10.0536 13.9908 9.96028 14.2941L9.01131 17.3782C8.6661 18.5002 9.35608 19.6596 10.4726 19.9153L13.6401 14.3721C13.9523 13.8258 14.4376 13.4141 15.0045 13.1902V5C15.0045 4.44772 14.5568 4 14.0045 4ZM17.0045 13V5C17.0045 4.64937 16.9444 4.31278 16.8338 4H18.0045C18.5568 4 19.0045 4.44772 19.0045 5V12C19.0045 12.5523 18.5568 13 18.0045 13H17.0045Z&quot; clip-rule=&quot;evenodd&quot; fill-rule=&quot;evenodd&quot;&gt;&lt;/path&gt;&lt;/svg&gt;&lt;/span&gt;&lt;/button&gt;&lt;button data-state=&quot;closed&quot; data-testid=&quot;voice-play-turn-action-button&quot; aria-selected=&quot;false&quot; aria-label=&quot;Read aloud&quot; class=&quot;text-token-text-secondary hover:bg-token-bg-secondary rounded-lg&quot;&gt;&lt;span class=&quot;touch:w-[38px] flex h-[30px] w-[30px] items-center justify-center&quot;&gt;&lt;svg class=&quot;icon-md-heavy&quot; xmlns=&quot;http://www.w3.org/2000/svg&quot; fill=&quot;none&quot; viewBox=&quot;0 0 24 24&quot; height=&quot;24&quot; width=&quot;24&quot;&gt;&lt;path fill=&quot;currentColor&quot; d=&quot;M11 4.9099C11 4.47485 10.4828 4.24734 10.1621 4.54132L6.67572 7.7372C6.49129 7.90626 6.25019 8.00005 6 8.00005H4C3.44772 8.00005 3 8.44776 3 9.00005V15C3 15.5523 3.44772 16 4 16H6C6.25019 16 6.49129 16.0938 6.67572 16.2629L10.1621 19.4588C10.4828 19.7527 11 19.5252 11 19.0902V4.9099ZM8.81069 3.06701C10.4142 1.59714 13 2.73463 13 4.9099V19.0902C13 21.2655 10.4142 22.403 8.81069 20.9331L5.61102 18H4C2.34315 18 1 16.6569 1 15V9.00005C1 7.34319 2.34315 6.00005 4 6.00005H5.61102L8.81069 3.06701ZM20.3166 6.35665C20.8019 6.09313 21.409 6.27296 21.6725 6.75833C22.5191 8.3176 22.9996 10.1042 22.9996 12.0001C22.9996 13.8507 22.5418 15.5974 21.7323 17.1302C21.4744 17.6185 20.8695 17.8054 20.3811 17.5475C19.8927 17.2896 19.7059 16.6846 19.9638 16.1962C20.6249 14.9444 20.9996 13.5175 20.9996 12.0001C20.9996 10.4458 20.6064 8.98627 19.9149 7.71262C19.6514 7.22726 19.8312 6.62017 20.3166 6.35665ZM15.7994 7.90049C16.241 7.5688 16.8679 7.65789 17.1995 8.09947C18.0156 9.18593 18.4996 10.5379 18.4996 12.0001C18.4996 13.3127 18.1094 14.5372 17.4385 15.5604C17.1357 16.0222 16.5158 16.1511 16.0539 15.8483C15.5921 15.5455 15.4632 14.9255 15.766 14.4637C16.2298 13.7564 16.4996 12.9113 16.4996 12.0001C16.4996 10.9859 16.1653 10.0526 15.6004 9.30063C15.2687 8.85905 15.3578 8.23218 15.7994 7.90049Z&quot; clip-rule=&quot;evenodd&quot; fill-rule=&quot;evenodd&quot;&gt;&lt;/path&gt;&lt;/svg&gt;&lt;/span&gt;&lt;/button&gt;&lt;button data-state=&quot;closed&quot; aria-selected=&quot;false&quot; aria-label=&quot;Edit in canvas&quot; class=&quot;text-token-text-secondary hover:bg-token-bg-secondary rounded-lg&quot;&gt;&lt;span class=&quot;touch:w-[38px] flex h-[30px] w-[30px] items-center justify-center&quot;&gt;&lt;svg class=&quot;icon-md&quot; xmlns=&quot;http://www.w3.org/2000/svg&quot; fill=&quot;none&quot; viewBox=&quot;0 0 24 24&quot; height=&quot;24&quot; width=&quot;24&quot;&gt;&lt;path stroke-linejoin=&quot;round&quot; stroke-linecap=&quot;round&quot; stroke=&quot;currentColor&quot; fill=&quot;currentColor&quot; d=&quot;M2.5 5.5C4.3 5.2 5.2 4 5.5 2.5C5.8 4 6.7 5.2 8.5 5.5C6.7 5.8 5.8 7 5.5 8.5C5.2 7 4.3 5.8 2.5 5.5Z&quot;&gt;&lt;/path&gt;&lt;path stroke-linejoin=&quot;round&quot; stroke-linecap=&quot;round&quot; stroke-width=&quot;2&quot; stroke=&quot;currentColor&quot; d=&quot;M5.66282 16.5231L5.18413 19.3952C5.12203 19.7678 5.09098 19.9541 5.14876 20.0888C5.19933 20.2067 5.29328 20.3007 5.41118 20.3512C5.54589 20.409 5.73218 20.378 6.10476 20.3159L8.97693 19.8372C9.72813 19.712 10.1037 19.6494 10.4542 19.521C10.7652 19.407 11.0608 19.2549 11.3343 19.068C11.6425 18.8575 11.9118 18.5882 12.4503 18.0497L20 10.5C21.3807 9.11929 21.3807 6.88071 20 5.5C18.6193 4.11929 16.3807 4.11929 15 5.5L7.45026 13.0497C6.91175 13.5882 6.6425 13.8575 6.43197 14.1657C6.24513 14.4392 6.09299 14.7348 5.97903 15.0458C5.85062 15.3963 5.78802 15.7719 5.66282 16.5231Z&quot;&gt;&lt;/path&gt;&lt;path stroke-linejoin=&quot;round&quot; stroke-linecap=&quot;round&quot; stroke-width=&quot;2&quot; stroke=&quot;currentColor&quot; d=&quot;M14.5 7L18.5 11&quot;&gt;&lt;/path&gt;&lt;/svg&gt;&lt;/span&gt;&lt;/button&gt;&lt;span class=&quot;hidden&quot;&gt;&lt;/span&gt;&lt;span data-state=&quot;closed&quot; class=&quot;&quot;&gt;&lt;button class=&quot;cursor-pointer text-token-text-secondary hover:bg-token-bg-secondary touch:px-2.5 h-[30px] rounded-md px-1.5&quot; data-state=&quot;closed&quot; aria-expanded=&quot;false&quot; aria-haspopup=&quot;menu&quot; id=&quot;radix-«rui»&quot; type=&quot;button&quot;&gt;&lt;div class=&quot;flex items-center&quot;&gt;&lt;svg class=&quot;icon-md&quot; xmlns=&quot;http://www.w3.org/2000/svg&quot; fill=&quot;none&quot; viewBox=&quot;0 0 24 24&quot; height=&quot;24&quot; width=&quot;24&quot;&gt;&lt;path fill=&quot;currentColor&quot; d=&quot;M3.06957 10.8763C3.62331 6.43564 7.40967 3 12 3C14.2824 3 16.4028 3.85067 18.0118 5.25439V4C18.0118 3.44772 18.4595 3 19.0118 3C19.5641 3 20.0118 3.44772 20.0118 4V8C20.0118 8.55228 19.5641 9 19.0118 9H15C14.4477 9 14 8.55228 14 8C14 7.44772 14.4477 7 15 7H16.9571C15.6757 5.76379 13.9101 5 12 5C8.43108 5 5.48466 7.67174 5.0542 11.1237C4.98586 11.6718 4.48619 12.0607 3.93815 11.9923C3.39011 11.924 3.00123 11.4243 3.06957 10.8763ZM20.0618 12.0077C20.6099 12.076 20.9988 12.5757 20.9304 13.1237C20.3767 17.5644 16.5903 21 12 21C9.72322 21 7.60762 20.1535 5.99999 18.7559V20C5.99999 20.5523 5.55228 21 4.99999 21C4.44771 21 3.99999 20.5523 3.99999 20V16C3.99999 15.4477 4.44771 15 4.99999 15H8.99999C9.55228 15 9.99999 15.4477 9.99999 16C9.99999 16.5523 9.55228 17 8.99999 17H7.04285C8.32433 18.2362 10.0899 19 12 19C15.5689 19 18.5153 16.3283 18.9458 12.8763C19.0141 12.3282 19.5138 11.9393 20.0618 12.0077Z&quot;&gt;&lt;/path&gt;&lt;/svg&gt;&lt;svg class=&quot;icon-sm&quot; xmlns=&quot;http://www.w3.org/2000/svg&quot; fill=&quot;none&quot; viewBox=&quot;0 0 24 24&quot; height=&quot;24&quot; width=&quot;24&quot;&gt;&lt;path fill=&quot;currentColor&quot; d=&quot;M5.29289 9.29289C5.68342 8.90237 6.31658 8.90237 6.70711 9.29289L12 14.5858L17.2929 9.29289C17.6834 8.90237 18.3166 8.90237 18.7071 9.29289C19.0976 9.68342 19.0976 10.3166 18.7071 10.7071L12.7071 16.7071C12.5196 16.8946 12.2652 17 12 17C11.7348 17 11.4804 16.8946 11.2929 16.7071L5.29289 10.7071C4.90237 10.3166 4.90237 9.68342 5.29289 9.29289Z&quot; clip-rule=&quot;evenodd&quot; fill-rule=&quot;evenodd&quot;&gt;&lt;/path&gt;&lt;/svg&gt;&lt;/div&gt;&lt;/button&gt;&lt;/span&gt;&lt;/div&gt;&lt;/div&gt;&lt;div class=&quot;mt-3 w-full empty:hidden&quot;&gt;&lt;div class=&quot;text-center&quot;&gt;&lt;/div&gt;&lt;/div&gt;&lt;/div&gt;&lt;div class=&quot;absolute&quot;&gt;&lt;span data-state=&quot;closed&quot; class=&quot;&quot;&gt;&lt;button class=&quot;btn relative btn-secondary btn-small shadow-lg&quot;&gt;&lt;div class=&quot;flex items-center justify-center&quot;&gt;&lt;svg class=&quot;icon-md&quot; xmlns=&quot;http://www.w3.org/2000/svg&quot; fill=&quot;none&quot; viewBox=&quot;0 0 24 24&quot; height=&quot;24&quot; width=&quot;24&quot;&gt;&lt;path fill=&quot;currentColor&quot; d=&quot;M7.5 13.25C7.98703 13.25 8.45082 13.1505 8.87217 12.9708C8.46129 14.0478 7.62459 15.5792 6.35846 15.76C5.81173 15.8382 5.43183 16.3447 5.50993 16.8914C5.58804 17.4382 6.09457 17.8181 6.6413 17.7399C9.19413 17.3753 10.7256 14.4711 11.169 12.1909C11.4118 10.942 11.3856 9.58095 10.8491 8.44726C10.2424 7.16517 8.92256 6.24402 7.48508 6.25001C5.55895 6.25805 4 7.82196 4 9.74998C4 11.683 5.567 13.25 7.5 13.25Z&quot;&gt;&lt;/path&gt;&lt;path fill=&quot;currentColor&quot; d=&quot;M16.18 13.25C16.667 13.25 17.1308 13.1505 17.5522 12.9708C17.1413 14.0478 16.3046 15.5792 15.0385 15.76C14.4917 15.8382 14.1118 16.3447 14.1899 16.8914C14.268 17.4382 14.7746 17.8181 15.3213 17.7399C17.8741 17.3753 19.4056 14.4711 19.849 12.1909C20.0918 10.942 20.0656 9.58095 19.5291 8.44726C18.9224 7.16517 17.6026 6.24402 16.1651 6.25001C14.2389 6.25805 12.68 7.82196 12.68 9.74998C12.68 11.683 14.247 13.25 16.18 13.25Z&quot;&gt;&lt;/path&gt;&lt;/svg&gt;&lt;/div&gt;&lt;/button&gt;&lt;/span&gt;&lt;/div&gt;&lt;/div&gt;&lt;/div&gt;&lt;/div&gt;&lt;/article&gt;" style="text;html=1;whiteSpace=wrap;overflow=hidden;rounded=1;fillColor=#f5f5f5;fontColor=#333333;strokeColor=#666666;arcSize=8;spacingLeft=30;spacingBottom=30;container=1;spacingRight=10;" parent="-9Ojm-nYIf-zTfuWbUYO-13" vertex="1">
          <mxGeometry x="-1230" y="30" width="700" height="1060" as="geometry" />
        </mxCell>
        <mxCell id="-9Ojm-nYIf-zTfuWbUYO-15" value="&lt;font style=&quot;font-size: 24px;&quot;&gt;&lt;strong style=&quot;background-color: transparent; color: light-dark(rgb(51, 51, 51), rgb(193, 193, 193));&quot; data-end=&quot;1286&quot; data-start=&quot;1262&quot;&gt;✅ Developer Takeaway&lt;br&gt;&lt;/strong&gt;&lt;br&gt;&lt;span style=&quot;background-color: transparent; color: light-dark(rgb(51, 51, 51), rgb(193, 193, 193));&quot;&gt;Use&amp;nbsp;&lt;/span&gt;&lt;strong style=&quot;background-color: transparent; color: light-dark(rgb(51, 51, 51), rgb(193, 193, 193));&quot; data-end=&quot;1313&quot; data-start=&quot;1294&quot;&gt;security groups&lt;/strong&gt;&lt;span style=&quot;background-color: transparent; color: light-dark(rgb(51, 51, 51), rgb(193, 193, 193));&quot;&gt;&amp;nbsp;to control traffic to and from your app.&lt;br&gt;&lt;/span&gt;&lt;br&gt;&lt;span style=&quot;background-color: transparent; color: light-dark(rgb(51, 51, 51), rgb(193, 193, 193));&quot;&gt;If your app can’t connect or be reached,&amp;nbsp;&lt;/span&gt;&lt;strong style=&quot;background-color: transparent; color: light-dark(rgb(51, 51, 51), rgb(193, 193, 193));&quot; data-end=&quot;1440&quot; data-start=&quot;1400&quot;&gt;check the chain of security groups and their rules first&lt;/strong&gt;&lt;span style=&quot;background-color: transparent; color: light-dark(rgb(51, 51, 51), rgb(193, 193, 193));&quot;&gt;.&lt;br&gt;&lt;/span&gt;&lt;br&gt;&lt;span style=&quot;background-color: transparent; color: light-dark(rgb(51, 51, 51), rgb(193, 193, 193));&quot;&gt;Refer to route tables or NACLs only if you&#39;re troubleshooting deeper issues.&lt;br&gt;&lt;/span&gt;&lt;br&gt;&lt;span style=&quot;background-color: transparent; color: light-dark(rgb(51, 51, 51), rgb(193, 193, 193));&quot;&gt;When creating SG rules, use&amp;nbsp;&lt;/span&gt;&lt;strong style=&quot;background-color: transparent; color: light-dark(rgb(51, 51, 51), rgb(193, 193, 193));&quot; data-end=&quot;1560&quot; data-start=&quot;1531&quot;&gt;security group references&lt;/strong&gt;&lt;span style=&quot;background-color: transparent; color: light-dark(rgb(51, 51, 51), rgb(193, 193, 193));&quot;&gt;&amp;nbsp;(not fixed IPs) for better flexibility.&lt;br&gt;&lt;/span&gt;&lt;br&gt;&lt;span style=&quot;background-color: transparent; color: light-dark(rgb(51, 51, 51), rgb(193, 193, 193));&quot;&gt;Tools like&amp;nbsp;&lt;/span&gt;&lt;strong style=&quot;background-color: transparent; color: light-dark(rgb(51, 51, 51), rgb(193, 193, 193));&quot; data-end=&quot;1643&quot; data-start=&quot;1616&quot;&gt;Network Access Analyzer&lt;/strong&gt;&lt;span style=&quot;background-color: transparent; color: light-dark(rgb(51, 51, 51), rgb(193, 193, 193));&quot;&gt;&amp;nbsp;can help debug blocked traffic.&lt;br&gt;&lt;/span&gt;&lt;span style=&quot;background-color: transparent; color: light-dark(rgb(51, 51, 51), rgb(193, 193, 193));&quot; data-end=&quot;1380&quot; data-start=&quot;1328&quot;&gt;&lt;strong style=&quot;font-weight: bold; background-color: transparent; color: light-dark(rgb(51, 51, 51), rgb(193, 193, 193));&quot; data-end=&quot;292&quot; data-start=&quot;240&quot;&gt;&lt;br&gt;Avoid opening security groups to large IP ranges&lt;/strong&gt;&lt;span style=&quot;background-color: transparent; color: light-dark(rgb(51, 51, 51), rgb(193, 193, 193));&quot;&gt; like &lt;/span&gt;&lt;code style=&quot;background-color: transparent; color: light-dark(rgb(51, 51, 51), rgb(193, 193, 193));&quot; data-end=&quot;309&quot; data-start=&quot;298&quot;&gt;0.0.0.0/0&lt;/code&gt;&lt;span style=&quot;background-color: transparent; color: light-dark(rgb(51, 51, 51), rgb(193, 193, 193));&quot;&gt; or &lt;/span&gt;&lt;code style=&quot;background-color: transparent; color: light-dark(rgb(51, 51, 51), rgb(193, 193, 193));&quot; data-end=&quot;326&quot; data-start=&quot;313&quot;&gt;10.0.0.0/16.&amp;nbsp;&lt;/code&gt;&lt;span style=&quot;background-color: transparent; color: light-dark(rgb(51, 51, 51), rgb(193, 193, 193));&quot;&gt;It&#39;s risky and can expose your service to attackers.&lt;br&gt;&lt;/span&gt;&lt;/span&gt;&lt;/font&gt;&lt;blockquote style=&quot;margin: 0 0 0 40px; border: none; padding: 0px;&quot;&gt;&lt;font style=&quot;&quot;&gt;&lt;span style=&quot;background-color: transparent; color: light-dark(rgb(51, 51, 51), rgb(193, 193, 193));&quot; data-end=&quot;1380&quot; data-start=&quot;1328&quot;&gt;&lt;span style=&quot;background-color: transparent; color: light-dark(rgb(51, 51, 51), rgb(193, 193, 193));&quot; data-end=&quot;389&quot; data-start=&quot;375&quot;&gt;&lt;span style=&quot;font-size: 24px;&quot;&gt;&lt;br&gt;Exception:&lt;/span&gt;&lt;/span&gt;&lt;span style=&quot;font-size: 24px; background-color: transparent; color: light-dark(rgb(51, 51, 51), rgb(193, 193, 193));&quot;&gt; It’s common (and okay) to allow &lt;/span&gt;&lt;code style=&quot;font-size: 24px; background-color: transparent; color: light-dark(rgb(51, 51, 51), rgb(193, 193, 193));&quot; data-end=&quot;433&quot; data-start=&quot;422&quot;&gt;0.0.0.0/0&lt;/code&gt;&lt;span style=&quot;font-size: 24px; background-color: transparent; color: light-dark(rgb(51, 51, 51), rgb(193, 193, 193));&quot;&gt; &lt;/span&gt;&lt;span style=&quot;font-size: 24px; background-color: transparent; color: light-dark(rgb(51, 51, 51), rgb(193, 193, 193));&quot; data-end=&quot;462&quot; data-start=&quot;434&quot;&gt;on a load balancer (ALB)&lt;/span&gt;&lt;span style=&quot;font-size: 24px; background-color: transparent; color: light-dark(rgb(51, 51, 51), rgb(193, 193, 193));&quot;&gt; that handles public web traffic — but never on backend services. Use AWS Web Application Firewall as extra protection at these endpoints.&lt;/span&gt;&lt;/span&gt;&lt;/font&gt;&lt;/blockquote&gt;" style="text;html=1;whiteSpace=wrap;overflow=hidden;rounded=1;fillColor=#f5f5f5;fontColor=#333333;strokeColor=#666666;arcSize=8;spacingLeft=30;spacingBottom=30;container=1;" parent="-9Ojm-nYIf-zTfuWbUYO-13" vertex="1">
          <mxGeometry x="710" y="80" width="550" height="870" as="geometry" />
        </mxCell>
        <mxCell id="-9Ojm-nYIf-zTfuWbUYO-16" value="application" style="locked=1;" parent="-9Ojm-nYIf-zTfuWbUYO-0" />
        <mxCell id="-9Ojm-nYIf-zTfuWbUYO-17" style="edgeStyle=orthogonalEdgeStyle;rounded=0;orthogonalLoop=1;jettySize=auto;html=1;fillColor=#dae8fc;strokeColor=#6c8ebf;strokeWidth=4;" parent="-9Ojm-nYIf-zTfuWbUYO-16" source="-9Ojm-nYIf-zTfuWbUYO-18" target="-9Ojm-nYIf-zTfuWbUYO-20" edge="1">
          <mxGeometry relative="1" as="geometry" />
        </mxCell>
        <mxCell id="-9Ojm-nYIf-zTfuWbUYO-18" value="" style="sketch=0;outlineConnect=0;fontColor=#232F3E;gradientColor=none;fillColor=#232F3D;strokeColor=none;dashed=0;verticalLabelPosition=bottom;verticalAlign=top;align=center;html=1;fontSize=12;fontStyle=0;aspect=fixed;pointerEvents=1;shape=mxgraph.aws4.user;" parent="-9Ojm-nYIf-zTfuWbUYO-16" vertex="1">
          <mxGeometry x="-320" y="10" width="78" height="78" as="geometry" />
        </mxCell>
        <mxCell id="-9Ojm-nYIf-zTfuWbUYO-20" value="&lt;font style=&quot;font-size: 20px; background-color: light-dark(#ffffff, var(--ge-dark-color, #121212));&quot;&gt;Internet&lt;/font&gt;" style="sketch=0;outlineConnect=0;fontColor=#232F3E;gradientColor=none;fillColor=#232F3D;strokeColor=none;dashed=0;verticalLabelPosition=top;verticalAlign=bottom;align=center;html=1;fontSize=12;fontStyle=0;aspect=fixed;pointerEvents=1;shape=mxgraph.aws4.internet_alt1;labelPosition=center;" parent="-9Ojm-nYIf-zTfuWbUYO-16" vertex="1">
          <mxGeometry x="-70" y="25" width="78" height="48" as="geometry" />
        </mxCell>
        <mxCell id="-9Ojm-nYIf-zTfuWbUYO-21" value="&lt;br&gt;&lt;br&gt;&lt;font style=&quot;font-size: 17px;&quot;&gt;AWS Application Load Balancer&lt;/font&gt;" style="fillColor=#dae8fc;strokeColor=#6c8ebf;dashed=0;verticalAlign=top;fontStyle=0;whiteSpace=wrap;html=1;strokeWidth=2;" parent="-9Ojm-nYIf-zTfuWbUYO-16" vertex="1">
          <mxGeometry x="-320" y="220" width="760" height="90" as="geometry" />
        </mxCell>
        <mxCell id="-9Ojm-nYIf-zTfuWbUYO-28" value="AWS Rds&lt;br&gt;database" style="sketch=0;points=[[0,0,0],[0.25,0,0],[0.5,0,0],[0.75,0,0],[1,0,0],[0,1,0],[0.25,1,0],[0.5,1,0],[0.75,1,0],[1,1,0],[0,0.25,0],[0,0.5,0],[0,0.75,0],[1,0.25,0],[1,0.5,0],[1,0.75,0]];outlineConnect=0;fontColor=#232F3E;fillColor=#C925D1;strokeColor=#ffffff;dashed=0;verticalLabelPosition=bottom;verticalAlign=top;align=center;html=1;fontSize=12;fontStyle=0;aspect=fixed;shape=mxgraph.aws4.resourceIcon;resIcon=mxgraph.aws4.rds;" parent="-9Ojm-nYIf-zTfuWbUYO-16" vertex="1">
          <mxGeometry x="-300" y="568" width="78" height="78" as="geometry" />
        </mxCell>
        <mxCell id="zVPoQIr7_orYq0ffft0C-0" value="EC2 (myApp)" style="sketch=0;points=[[0,0,0],[0.25,0,0],[0.5,0,0],[0.75,0,0],[1,0,0],[0,1,0],[0.25,1,0],[0.5,1,0],[0.75,1,0],[1,1,0],[0,0.25,0],[0,0.5,0],[0,0.75,0],[1,0.25,0],[1,0.5,0],[1,0.75,0]];outlineConnect=0;fontColor=#232F3E;fillColor=#ED7100;strokeColor=#ffffff;dashed=0;verticalLabelPosition=bottom;verticalAlign=top;align=center;html=1;fontSize=12;fontStyle=0;aspect=fixed;shape=mxgraph.aws4.resourceIcon;resIcon=mxgraph.aws4.ec2;" parent="-9Ojm-nYIf-zTfuWbUYO-16" vertex="1">
          <mxGeometry x="-270" y="380" width="78" height="78" as="geometry" />
        </mxCell>
        <mxCell id="zVPoQIr7_orYq0ffft0C-8" value="sg" style="locked=1;" parent="-9Ojm-nYIf-zTfuWbUYO-0" />
        <mxCell id="zVPoQIr7_orYq0ffft0C-10" value="&lt;b&gt;SG: allow traffic from AWS ALB&lt;/b&gt;" style="fillColor=none;strokeColor=#DD3522;verticalAlign=top;fontStyle=0;fontColor=#DD3522;whiteSpace=wrap;html=1;" parent="zVPoQIr7_orYq0ffft0C-8" vertex="1">
          <mxGeometry x="-290" y="360" width="190" height="120" as="geometry" />
        </mxCell>
        <mxCell id="zVPoQIr7_orYq0ffft0C-11" value="SG: allow traffic from myApp EC2" style="fillColor=none;strokeColor=#DD3522;verticalAlign=top;fontStyle=0;fontColor=#DD3522;whiteSpace=wrap;html=1;" parent="zVPoQIr7_orYq0ffft0C-8" vertex="1">
          <mxGeometry x="-320" y="530" width="170" height="150" as="geometry" />
        </mxCell>
        <mxCell id="zVPoQIr7_orYq0ffft0C-12" value="&lt;span style=&quot;background-color: light-dark(#ffffff, var(--ge-dark-color, #121212));&quot;&gt;&lt;b&gt;Security group: allow HTTPS FROM INTERNET.&amp;nbsp;&lt;/b&gt;&lt;/span&gt;" style="fillColor=none;strokeColor=#DD3522;verticalAlign=top;fontStyle=0;fontColor=#DD3522;whiteSpace=wrap;html=1;" parent="zVPoQIr7_orYq0ffft0C-8" vertex="1">
          <mxGeometry x="-340" y="190" width="790" height="130" as="geometry" />
        </mxCell>
        <mxCell id="zVPoQIr7_orYq0ffft0C-28" value="traffic" style="locked=1;" parent="-9Ojm-nYIf-zTfuWbUYO-0" />
        <mxCell id="zVPoQIr7_orYq0ffft0C-29" style="edgeStyle=orthogonalEdgeStyle;rounded=0;orthogonalLoop=1;jettySize=auto;html=1;fontSize=13;strokeWidth=4;fillColor=#d5e8d4;strokeColor=#82b366;" parent="zVPoQIr7_orYq0ffft0C-28" edge="1">
          <mxGeometry relative="1" as="geometry">
            <Array as="points">
              <mxPoint x="60" y="49" />
            </Array>
            <mxPoint x="6" y="49" as="sourcePoint" />
            <mxPoint x="60" y="220" as="targetPoint" />
          </mxGeometry>
        </mxCell>
        <mxCell id="zVPoQIr7_orYq0ffft0C-30" value="&lt;b&gt;HTTPS&lt;/b&gt;" style="edgeLabel;html=1;align=center;verticalAlign=middle;resizable=0;points=[];fontColor=#97D077;" parent="zVPoQIr7_orYq0ffft0C-29" vertex="1" connectable="0">
          <mxGeometry x="0.125" relative="1" as="geometry">
            <mxPoint x="-5" y="-12" as="offset" />
          </mxGeometry>
        </mxCell>
        <mxCell id="zVPoQIr7_orYq0ffft0C-31" style="edgeStyle=orthogonalEdgeStyle;rounded=0;orthogonalLoop=1;jettySize=auto;html=1;fillColor=#d5e8d4;strokeColor=#82b366;strokeWidth=4;" parent="zVPoQIr7_orYq0ffft0C-28" edge="1">
          <mxGeometry relative="1" as="geometry">
            <mxPoint x="60" y="310" as="sourcePoint" />
            <mxPoint x="-192" y="400" as="targetPoint" />
            <Array as="points">
              <mxPoint x="60" y="400" />
            </Array>
          </mxGeometry>
        </mxCell>
        <mxCell id="zVPoQIr7_orYq0ffft0C-32" value="&lt;font style=&quot;color: rgb(151, 208, 119);&quot;&gt;&lt;b&gt;HTTP(S)&lt;/b&gt;&lt;/font&gt;" style="edgeLabel;html=1;align=center;verticalAlign=middle;resizable=0;points=[];" parent="zVPoQIr7_orYq0ffft0C-31" vertex="1" connectable="0">
          <mxGeometry x="-0.0092" y="-3" relative="1" as="geometry">
            <mxPoint as="offset" />
          </mxGeometry>
        </mxCell>
        <mxCell id="zVPoQIr7_orYq0ffft0C-33" style="edgeStyle=orthogonalEdgeStyle;rounded=0;orthogonalLoop=1;jettySize=auto;html=1;entryX=1;entryY=0.25;entryDx=0;entryDy=0;entryPerimeter=0;strokeWidth=4;fillColor=#d5e8d4;strokeColor=#82b366;" parent="zVPoQIr7_orYq0ffft0C-28" edge="1">
          <mxGeometry relative="1" as="geometry">
            <mxPoint x="-192" y="440" as="sourcePoint" />
            <mxPoint x="-222" y="588" as="targetPoint" />
            <Array as="points">
              <mxPoint x="60" y="440" />
              <mxPoint x="60" y="588" />
            </Array>
          </mxGeometry>
        </mxCell>
        <mxCell id="zVPoQIr7_orYq0ffft0C-34" value="&lt;b&gt;&lt;font style=&quot;font-size: 13px; color: rgb(151, 208, 119);&quot;&gt;mysql&lt;/font&gt;&lt;/b&gt;" style="edgeLabel;html=1;align=center;verticalAlign=middle;resizable=0;points=[];" parent="zVPoQIr7_orYq0ffft0C-33" vertex="1" connectable="0">
          <mxGeometry x="-0.1202" relative="1" as="geometry">
            <mxPoint as="offset" />
          </mxGeometry>
        </mxCell>
        <mxCell id="zVPoQIr7_orYq0ffft0C-35" style="edgeStyle=orthogonalEdgeStyle;rounded=0;orthogonalLoop=1;jettySize=auto;html=1;entryX=1;entryY=0.75;entryDx=0;entryDy=0;entryPerimeter=0;fillColor=#f8cecc;strokeColor=#b85450;strokeWidth=5;dashed=1;" parent="zVPoQIr7_orYq0ffft0C-28" edge="1">
          <mxGeometry relative="1" as="geometry">
            <mxPoint x="110" y="310" as="sourcePoint" />
            <mxPoint x="-222" y="627" as="targetPoint" />
            <Array as="points">
              <mxPoint x="110" y="626" />
            </Array>
          </mxGeometry>
        </mxCell>
        <mxCell id="zVPoQIr7_orYq0ffft0C-36" value="not &lt;br&gt;allowed" style="edgeLabel;html=1;align=center;verticalAlign=middle;resizable=0;points=[];fontSize=15;fontStyle=1" parent="zVPoQIr7_orYq0ffft0C-35" vertex="1" connectable="0">
          <mxGeometry x="-0.5032" y="-3" relative="1" as="geometry">
            <mxPoint y="149" as="offset" />
          </mxGeometry>
        </mxCell>
      </root>
    </mxGraphModel>
  </diagram>
</mxfile>
